<svg version="1.1" id="Capa_1" xmlns="http://www.w3.org/2000/svg" xmlns:xlink="http://www.w3.org/1999/xlink" x="0px" y="0px"
	 viewBox="0 0 512 512" style="enable-background:new 0 0 512 512;" xml:space="preserve">
<style type="text/css">
	.st0{fill:#DD97A8;}
	.st1{fill:#999B9E;}
	.st2{fill:#C8C6CD;}
</style>
<g>
	<path class="st0" d="M289.4,454.8l-25.2,25.7l0,0L251,493.6h-90.3L126.5,481l-1.5-0.5l-47.8-47.3l-48.8-48.3
		C10.2,367.4,0.2,342.6,0,316.9c0-25.4,10.6-50,28.6-68.1l28.1-26.7l52,10l85.2,85.2l79.5,79.5L289.4,454.8z"/>
	<path class="st0" d="M378.8,25.2l107.5,107.5c16.3,16.3,25.7,38.8,25.7,61.7c0,23.3-9.1,45.2-25.4,61.9l-48.1,48.6l-60-17.6
		L222.1,131l-15.5-57.9L255.2,25C288.7-7.7,346.2-7.5,378.8,25.2z"/>
</g>
<path class="st1" d="M322.4,188.9L322.4,188.9L206.6,73.1l-149.9,149l116.1,116.1l0.1,0.1l116.4,116.4l149-149.9L322.4,188.9z"/>
<path class="st2" d="M511.9,495.4c0,8.4-6.6,16-15,16H162c-3.9,0-7.8-1.5-10.5-4.5l-26.3-26.5H497
	C505.3,480.4,511.9,487,511.9,495.4z"/>
</svg>
