<svg id="e64f46b6-a06e-4c78-a860-f1348799f33c" data-name="Capa 1" xmlns="http://www.w3.org/2000/svg" viewBox="0 0 512 490.95"><defs>
	<style>
		.\38 3165d94-be84-45ef-b5aa-c6b6c432bd77{fill:#ebbd63;}.\32 d77dcd1-f88b-4baf-b59a-88052eabe3f7{fill:#5a5a5a;}.af64183b-f78d-4a38-9a56-202d3fe8e719{fill:#e0a54f;}
	</style>
</defs>
<title>highlighter</title>
<path class="83165d94-be84-45ef-b5aa-c6b6c432bd77" d="M138.08,426.88l-21.22-21.21L95.64,384.44a14.86,14.86,0,0,0-21.22,0L63.86,395.1l-59.49,60a15.6,15.6,0,0,0-4,14.21,14.55,14.55,0,0,0,4,7,16.41,16.41,0,0,0,5.73,3.62L34.53,488l38.62,12.75a15.36,15.36,0,0,0,15.49-3.6l38.79-38.48,10.65-10.56A14.86,14.86,0,0,0,138.08,426.88Z" transform="translate(0 -10.52)"/><path class="2d77dcd1-f88b-4baf-b59a-88052eabe3f7" d="M498.79,66.17,477.57,45,456.36,23.74a44.94,44.94,0,0,0-63.66,0L380.83,35.61,371.49,45a14.85,14.85,0,0,0,0,21.22l42.43,42.43h0L456.36,151a14.84,14.84,0,0,0,21.21,0l9.35-9.36,11.87-11.86A45,45,0,0,0,498.79,66.17Z" transform="translate(0 -10.52)"/><path class="2d77dcd1-f88b-4baf-b59a-88052eabe3f7" d="M266.24,446.82a15,15,0,0,1-16.34,4.88l-6.58-2.33a82.08,82.08,0,0,0-84,19.95,14.86,14.86,0,0,1-21.22,0L53.2,384.44a14.86,14.86,0,0,1,0-21.22,82.08,82.08,0,0,0,20-84l-2.34-6.58a14.81,14.81,0,0,1,4.67-16.13L108,269.44,262.2,423.69Z" transform="translate(0 -10.52)"/><path class="83165d94-be84-45ef-b5aa-c6b6c432bd77" d="M430.89,252.89,384,248.43,270.9,135.34l-1.27-43.71,60.26-50.92c18.46-15.07,44.56-14,61.11,2.54l88.27,88.27c16.55,16.55,17.61,42.65,2.76,60.9Z" transform="translate(0 -10.52)"/><polygon class="af64183b-f78d-4a38-9a56-202d3fe8e719" points="266.24 436.72 75.27 245.76 269.63 81.1 430.89 242.37 266.24 436.72"/><path class="2d77dcd1-f88b-4baf-b59a-88052eabe3f7" d="M392.7,129.82a45,45,0,0,0-63.65,0l-84.88,84.87a14.87,14.87,0,0,0,0,21.23l21.22,21.21,21.21,21.22a14.87,14.87,0,0,0,21.23,0l53-53.05,31.83-31.82A44.94,44.94,0,0,0,392.7,129.82Z" transform="translate(0 -10.52)"/></svg>