<svg id="Layer_1" data-name="Layer 1" xmlns="http://www.w3.org/2000/svg" viewBox="0 0 344 344"><title>login</title><path d="M299.63,225h14.74c.75.1,1.5.26,2.25.3a162.41,162.41,0,0,1,44.09,8.44c38.32,13.09,68.57,36.69,90.72,70.53A166.69,166.69,0,0,1,478,378.83c.39,3.6.68,7.2,1,10.8v14.74c-.1.75-.26,1.49-.3,2.23a155.68,155.68,0,0,1-6.29,37.07c-15.35,50.6-47.07,87.21-94.78,109.88A159.67,159.67,0,0,1,325.18,568c-3.6.37-7.21.68-10.81,1H299.63c-2.38-.22-4.76-.46-7.14-.65A165.32,165.32,0,0,1,240,555.21,172.54,172.54,0,0,1,165,493.38a168.08,168.08,0,0,1-29-78.21c-.38-3.48-.68-7-1-10.45V389.28c.1-.69.27-1.37.3-2.06a159.54,159.54,0,0,1,5.2-33c10.82-40.18,33.19-72.48,66.82-96.88A167.52,167.52,0,0,1,288.82,226C292.42,225.62,296,225.33,299.63,225Zm111,289.56C452.16,480,477.33,417.65,458.6,353a157.87,157.87,0,0,0-303.46.8c-18.36,64.94,7.3,126.74,48.12,160.73a99.52,99.52,0,0,1,22.08-62.36c14.4-18.11,33-30,55.47-36.31-27.57-11-49.19-45.13-40.1-80.58a68.64,68.64,0,0,1,66.51-51.36c31.33.21,58.73,21.74,66.07,51.69,8.17,33.32-9.37,69.29-40.09,80.25a108.56,108.56,0,0,1,54.88,36.77C402.53,470.62,410.31,491.13,410.67,514.56Z" transform="translate(-135 -225)"/></svg>