<svg version="1.1" id="Capa_1" xmlns="http://www.w3.org/2000/svg" xmlns:xlink="http://www.w3.org/1999/xlink" x="0px" y="0px"
	 viewBox="0 0 512 512" style="enable-background:new 0 0 512 512;" xml:space="preserve">
<style type="text/css">
	.st0{fill:#C8C6CD;}
	.st1{fill:#DF9E58;}
	.st2{fill:#5A5A5A;}
	.st3{fill:#444444;}
	.st4{fill:#EBBD63;}
	.st5{fill:#6F7173;}
</style>
<path class="st0" d="M470.3,73.5L452,89.4v347c0,49.2-99.1,75-196,75s-196-25.8-196-75v-347L35.7,70.8l27.9-11.4h384.8L470.3,73.5z"
	/>
<path class="st0" d="M470.3,73.5L452,89.4v347c0,49.2-99.1,75-196,75v-452h192.4L470.3,73.5z"/>
<path class="st1" d="M316.9,116.1l-60.9-4.2l-119.1-7.8c-3.9-0.3-8.1,1.2-11.1,4.2c-3,2.7-4.8,6.6-4.8,10.8v166.3
	c0,24.9,20.1,45,45,45s45-20.1,45-45v-60c0-8.4,6.6-15,15-15s15,6.6,15,15v30c0,13.2,5.7,25.2,15,33.3c7.8,7.2,18.3,11.7,30,11.7
	c24.9,0,45-20.1,45-45V131.1C331,123,325,116.4,316.9,116.1z"/>
<path class="st2" d="M512,104.4v91c0,53.1-21.9,104.1-60,140.4c-6.3,6.3-12.9,12-20.1,17.1c-33.9,24.9-74.8,37.5-115.9,37.5
	c-19.8,0-39.9-3.3-60-9.3c-19.8,6-40.2,9.3-60,9.3c-41.1,0-82.3-12.9-115.9-37.5c-7.2-5.1-13.8-10.8-20.1-17.1
	C21.9,299.5,0,248.5,0,195.4v-91c0-24.9,20.1-45,45-45h18.6c-1.8,3.9-3,7.5-3.3,11.7C60,72,60,73.2,60,74.4v15H45
	c-8.4,0-15,6.6-15,15v91c0,34.2,10.5,67.2,30,94.5c10.2,14.7,22.8,27.9,37.8,38.7c43.2,31.8,99.4,40.2,152.5,23.1
	c1.2-0.3,2.4-0.3,3.6-0.3c0.9-0.3,1.5-0.3,2.1-0.3c1.8-0.3,3.3,0,5.1,0.6c53.4,17.1,109.9,8.7,153.1-22.8
	c15-11.1,27.9-24.3,37.8-39.3c19.2-27.3,30-60.3,30-94.2v-91c0-8.4-6.6-15-15-15h-15v-15c0-1.2,0-2.4-0.3-3.3
	c-0.3-4.2-1.5-7.8-3.3-11.7H467C491.9,59.4,512,79.5,512,104.4z"/>
<path class="st3" d="M512,104.4v91c0,53.1-21.9,104.1-60,140.4c-6.3,6.3-12.9,12-20.1,17.1c-33.9,24.9-74.8,37.5-115.9,37.5
	c-19.8,0-39.9-3.3-60-9.3v-30c1.8-0.3,3.3,0,5.1,0.6c53.4,17.1,109.9,8.7,153.1-22.8c15-11.1,27.9-24.3,37.8-39.3
	c19.2-27.3,30-60.3,30-94.2v-91c0-8.4-6.6-15-15-15h-15v-15c0-1.2,0-2.4-0.3-3.3c-0.3-4.2-1.5-7.8-3.3-11.7H467
	C491.9,59.4,512,79.5,512,104.4z"/>
<path class="st4" d="M256,0.6c-97.5,0-196,24.6-196,73.8s99.1,75,196,75s196-25.8,196-75S353.5,0.6,256,0.6z"/>
<path class="st5" d="M286,330.4h-60c-24.9,0-45,20.1-45,45s20.1,45,45,45h60c24.9,0,45-20.1,45-45S310.9,330.4,286,330.4z"/>
</svg>
