<svg version="1.1" id="Capa_1" xmlns="http://www.w3.org/2000/svg" xmlns:xlink="http://www.w3.org/1999/xlink" x="0px" y="0px"
	 viewBox="0 0 512 512" style="enable-background:new 0 0 512 512;" xml:space="preserve">
<style type="text/css">
	.st0{fill:#A24F3D;}
	.st1{fill:#B35C4B;}
	.st2{fill:#5A5A5A;}
	.st3{fill:#BDB4F5;}
</style>
<path class="st0" d="M503,8.6c6.2,6.2,9,13.9,9,23.2c0,32.2-31.6,79.7-64.4,119.3h-72.4l-1.9-12.4L361,64.5
	C412.7,22.7,476.1-18.3,503,8.6z"/>
<path class="st1" d="M361,64.5l86.6,86.6c-14.8,18.6-42.4,48.6-63.1,69.3c-20.1,20.1-120.7,118.2-175.7,118.2l-18.9-16.4l-15.5-13
	c-8-53.2,96.5-160.9,117.3-181.6C310.9,108.4,340.3,82.1,361,64.5z"/>
<path class="st2" d="M93.1,295.3c-10.5,10.5-17.9,23.5-22.3,37.1C64.3,355,43.6,372,18.5,376c-8,1.2-14.8,6.8-17.3,14.8
	c-2.8,7.7-0.6,16.1,5.3,22l6.2,6.2c14.2,14.2,30.6,25.1,48.6,31.9c17,7.1,35,10.8,53.5,10.8c38.7-0.3,74.6-15.2,102.1-42.7
	c16.4-16.4,25.4-38.4,25.7-61.6c0-23.5-9-45.5-25.7-62.2C183.7,262.2,125.9,262.5,93.1,295.3z"/>
<path class="st3" d="M93.1,295.3c-10.5,10.5-17.9,23.5-22.3,37.1C64.3,355,43.6,372,18.5,376c-8,1.2-14.8,6.8-17.3,14.8
	c-2.8,7.7-0.6,16.1,5.3,22l6.2,6.2c14.2,14.2,30.6,25.1,48.6,31.9c17,7.1,35,10.8,53.5,10.8c38.7-0.3,74.6-15.2,102.1-42.7"/>
</svg>
