<svg version="1.1" id="Capa_1" xmlns="http://www.w3.org/2000/svg" xmlns:xlink="http://www.w3.org/1999/xlink" x="0px" y="0px"
	 viewBox="0 0 512 512" style="enable-background:new 0 0 512 512;" xml:space="preserve">
<style type="text/css">
	.st0{fill:#74D8EB;}
	.st1{fill:#D9D9D9;}
	.st2{fill:#8B8892;}
	.st3{fill:#444444;}
</style>
<path class="st0" d="M467,151H117.4c0,0-9.4,0-72.4,0c-24.9,0-45,20.1-45,45v150c0,24.9,20.1,45,45,45h422c24.9,0,45-20.1,45-45V196
	C512,171.1,491.9,151,467,151z"/>
<g>
	<circle class="st1" cx="76" cy="256" r="15"/>
	<path class="st1" d="M391,120v106c0,8.4-6.6,15-15,15H136c-8.4,0-15-6.6-15-15V15c0-8.4,6.6-15,15-15h135l30.6,102L391,120z"/>
</g>
<path class="st2" d="M271,105c0,8.4,6.6,15,15,15h105L271,0V105z"/>
<path class="st1" d="M391,320.5V497c0,8.4-6.6,15-15,15H136c-8.4,0-15-6.6-15-15V320.5H391z"/>
<g>
	<path class="st2" d="M331,437c0,8.4-6.6,15-15,15H196c-8.4,0-15-6.6-15-15c0-8.4,6.6-15,15-15h120C324.4,422,331,428.6,331,437z"/>
	<path class="st2" d="M331,376c0,8.4-6.6,15-15,15H196c-8.4,0-15-6.6-15-15c0-8.4,6.6-15,15-15h120C324.4,361,331,367.6,331,376z"/>
</g>
<path class="st3" d="M421,316c0,8.4-6.6,15-15,15H106c-8.4,0-15-6.6-15-15c0-8.4,6.6-15,15-15h300C414.4,301,421,307.6,421,316z"/>
</svg>
