<svg version="1.1" id="Capa_1" xmlns="http://www.w3.org/2000/svg" xmlns:xlink="http://www.w3.org/1999/xlink" x="0px" y="0px"
	 viewBox="0 0 430.9 430.9" style="enable-background:new 0 0 430.9 430.9;" xml:space="preserve">
<style type="text/css">
	.st0{fill:#5A5A5A;}
</style>
<g>
	<g>
		<path class="st0" d="M296.9,403.2c-22.7,10.9-47.5,17.8-73.7,19.8v-64.8c14.6-1.6,28.7-4.9,41.6-10.6L296.9,403.2z"/>
		<path class="st0" d="M64.8,199.9H0C8.2,92.6,97.9,7.9,207.2,7.9c64.3,0,124.7,30.1,163.8,80l59.8-34.6l0.1,197.8l-171.4-98.8
			l55.1-31.9c-27.1-30.3-66-48.6-107.4-48.6C133.3,71.9,72.9,128.1,64.8,199.9z"/>
		<path class="st0" d="M322.7,301l56,32.3c-14.5,21.2-32.9,39.5-54,54l-32.3-56C303.9,322.8,314.1,312.6,322.7,301z"/>
		<path class="st0" d="M191.2,358.2v64.8c-26.2-2-51.1-8.9-73.7-19.8l32.1-55.6C162.5,353.3,176.6,356.6,191.2,358.2z"/>
		<path class="st0" d="M122,331.4l-32.3,56c-21.2-14.6-39.5-32.9-54-54l56-32.3C100.3,312.6,110.4,322.8,122,331.4z"/>
		<path class="st0" d="M75.4,273.5l-55.6,32.1C8.9,282.9,2,258.1,0,231.9h64.8C66.4,246.5,69.7,260.5,75.4,273.5z"/>
	</g>
</g>
</svg>
