<svg version="1.1" id="Capa_1" xmlns="http://www.w3.org/2000/svg" xmlns:xlink="http://www.w3.org/1999/xlink" x="0px" y="0px"
	 viewBox="0 0 512 512" style="enable-background:new 0 0 512 512;" xml:space="preserve">
<style type="text/css">
	.st0{fill:#E7E257;}
	.st1{fill:#DE7F5B;}
	.st2{fill:#74D8EB;}
	.st3{fill:#BDB4F5;}
	.st4{fill:#ACCB58;}
	.st5{fill:#EBBD63;}
	.st6{fill:#E5E5E5;}
</style>
<path class="st0" d="M256,0C165.1,0,91,75.1,91,166c0,15.3,2.1,30,6,44.1c2.4,8.7,11.4,13.2,19.8,10.2
	c43.8-16.8,93.6-9.9,130.2,17.7c2.7,1.8,6,3,9,3c3.3,0,6.6-1.2,9-3c36.6-27.6,86.4-34.5,130.2-17.7c8.1,3,17.4-1.5,19.8-10.2
	c3.9-14.1,6-28.8,6-44.1C421,75.1,346.9,0,256,0z"/>
<path class="st1" d="M512,346c0,91-75,166-166,166c-36.3,0-70.6-11.4-99.1-33c-8-6-7.9-18,0-23.9c33.8-25.4,54-66.8,54-109
	c0-12.5-1.6-24.6-4.8-36.2c-2.1-7.4,1.8-15.2,9-18c39.5-15.5,69.8-49.1,81-89.6c2.4-8.7,11.8-13.2,19.9-10
	C469.8,217.2,512,277.6,512,346z"/>
<path class="st2" d="M166,512C75,512,0,437,0,346c0-68.4,42.2-128.8,105.9-153.8c8-3.3,17.5,1.3,19.9,10
	c11.2,40.6,41.5,74.1,81,89.6c7.1,2.8,11,10.6,8.9,18c-3.2,11.5-4.8,23.7-4.8,36.2c0,42.2,20.2,83.6,54,109c7.9,6,8,17.9,0,23.9
	C236.6,500.6,202.3,512,166,512z"/>
<path class="st3" d="M325,301.9c-2.4-8.7-11.4-13.2-19.8-10.2c-15.6,6.3-32.4,9.3-49.2,9.3s-33.6-3-49.2-9.3
	c-8.4-3-17.4,1.5-19.8,10.2c-3.9,14.1-6,28.8-6,44.1c0,51.6,24.6,101.8,66,133l9,6.6l9-6.6c41.4-31.2,66-81.4,66-133
	C331,330.7,328.9,316,325,301.9z"/>
<path class="st4" d="M195.9,319.8c-52.3-20.6-91.4-67-101.9-122.3c56-26.9,123.1-19.8,171.1,16.6c7.9,6,7.9,17.9,0,23.9
	c-23.8,18.1-41.3,43.6-49.2,71.9C213.5,318.4,204.3,323,195.9,319.8z"/>
<path class="st5" d="M296.2,309.8c-7.9-28.3-25.4-53.8-49.2-71.9c-7.9-6-7.9-17.9,0-23.9c48-36.4,115.1-43.6,171.1-16.6
	c-10.5,55.3-49.6,101.8-101.9,122.3C307.7,323,298.5,318.4,296.2,309.8z"/>
<path class="st6" d="M256,207.7c-37.2,24.6-63.9,63.6-72.3,107.4l12.3,4.8c19.2,7.2,39.6,11.1,60,11.1s40.8-3.9,60-11.1l12.3-4.8
	C319.9,271.6,293.5,232.3,256,207.7z"/>
</svg>
