<svg version="1.1" id="Capa_1" xmlns="http://www.w3.org/2000/svg" xmlns:xlink="http://www.w3.org/1999/xlink" x="0px" y="0px"
	 viewBox="0 0 430.9 430.9" style="enable-background:new 0 0 430.9 430.9;" xml:space="preserve">
<style type="text/css">
	.st0{fill:#5A5A5A;}
</style>
<g>
	<g>
		<path class="st0" d="M134,403.2c22.6,10.9,47.5,17.8,73.7,19.8v-64.8c-14.6-1.6-28.7-4.9-41.6-10.6L134,403.2z"/>
		<path class="st0" d="M366.1,199.9h64.8C422.7,92.6,333,7.9,223.7,7.9C159.4,7.9,99,38,59.9,87.8L0.1,53.3L0,251.1l171.4-98.8
			l-55.1-31.9c27.1-30.3,66-48.6,107.4-48.6C297.7,71.9,358,128.1,366.1,199.9z"/>
		<path class="st0" d="M108.2,301l-56,32.3c14.5,21.2,32.9,39.5,54,54l32.3-56C127,322.8,116.8,312.6,108.2,301z"/>
		<path class="st0" d="M239.7,358.2v64.8c26.2-2,51.1-8.9,73.7-19.8l-32.1-55.6C268.4,353.3,254.3,356.6,239.7,358.2z"/>
		<path class="st0" d="M308.9,331.4l32.3,56c21.2-14.6,39.5-32.9,54.1-54l-56-32.3C330.7,312.6,320.5,322.8,308.9,331.4z"/>
		<path class="st0" d="M355.5,273.5l55.6,32.1c10.9-22.6,17.8-47.4,19.8-73.7h-64.8C364.5,246.5,361.2,260.5,355.5,273.5z"/>
	</g>
</g>
</svg>
