<svg version="1.1" id="Capa_1" xmlns="http://www.w3.org/2000/svg" xmlns:xlink="http://www.w3.org/1999/xlink" x="0px" y="0px"
	 viewBox="0 0 400 400" style="enable-background:new 0 0 400 400;" xml:space="preserve">

		<path d="M0.2,208.7c0-5.7,0-11.4,0-17c0.1-0.3,0.2-0.5,0.2-0.8c0.2-3.3,0.4-6.7,0.7-10c1.4-14.9,4.4-29.5,9.2-43.7
			c10.9-32.3,28.8-60,53.6-83.3c14.7-13.7,31.1-25,49.1-33.7c23.6-11.4,48.5-18,74.7-19.6c2-0.1,4-0.3,6-0.4c4.2,0,8.5,0,12.7,0
			c0.3,0.1,0.6,0.2,0.9,0.2c4.2,0.3,8.4,0.4,12.6,0.8c15.3,1.5,30.3,4.7,44.9,9.8c30.9,10.7,57.6,27.8,80.1,51.4
			c14.7,15.4,26.7,32.8,35.8,52c11.1,23.3,17.4,47.8,19,73.5c0.1,2,0.3,3.9,0.4,5.9c0,4.2,0,8.5,0,12.7c-0.1,0.3-0.2,0.6-0.2,0.9
			c-0.2,8-1,16-2.3,24c-3.3,21-9.8,41-19.5,59.9c-10.3,20-23.5,37.7-39.7,53.3c-15.4,14.8-32.7,26.8-51.9,36
			c-24.2,11.7-49.8,18.1-76.7,19.4c-0.4,0-0.8,0.1-1.2,0.2c-5.7,0-11.4,0-17,0c-0.3-0.1-0.5-0.2-0.8-0.2c-14-0.6-27.8-2.7-41.4-6.3
			c-36.3-9.6-67.5-28.1-93.6-55.1c-15-15.5-27.1-33.1-36.4-52.6C8.1,261.9,1.7,236.5,0.4,209.9C0.4,209.5,0.3,209.1,0.2,208.7z
			 M200.2,374c95.2,0.1,172.7-77,173.7-171.8c1-96.4-76.7-174.6-171.8-175.6c-96.3-1-174.4,76.4-175.7,171.2
			C25.2,295.1,104.1,374.1,200.2,374z"/>
		<path d="M88,307.7l4.6,4.6c6.8,6.8,17.8,6.8,24.6,0l195.5-195.5c6.8-6.8,6.8-17.8,0-24.6l-4.6-4.6c-6.8-6.8-17.8-6.8-24.6,0
			L88,283.2C81.2,289.9,81.2,301,88,307.7z"/>
		<path d="M307.7,312.4l4.6-4.6c6.8-6.8,6.8-17.8,0-24.6L116.8,87.6c-6.8-6.8-17.8-6.8-24.6,0l-4.6,4.6c-6.8,6.8-6.8,17.8,0,24.6
			l195.5,195.5C289.9,319.1,301,319.1,307.7,312.4z"/>

</svg>
