<?xml version="1.0" encoding="UTF-8"?>
<svg width="4748px" height="3704px" viewBox="0 0 4748 3704" version="1.1" xmlns="http://www.w3.org/2000/svg" xmlns:xlink="http://www.w3.org/1999/xlink">
    <!-- Generator: Sketch 47.1 (45422) - http://www.bohemiancoding.com/sketch -->
    <title>bg-login</title>
    <desc>Created with Sketch.</desc>
    <defs>
        <linearGradient x1="50%" y1="0%" x2="50%" y2="100%" id="linearGradient-1">
            <stop stop-color="#FFFFFF" offset="0%"></stop>
            <stop stop-color="#57D300" offset="100%"></stop>
        </linearGradient>
        <rect id="path-2" x="-45" y="-113" width="4790" height="3809"></rect>
        <path d="M2000.03,4000 L4000,4000 L4000,0.04 L0.06,0.04 L0.06,4000 L2000.03,4000 Z M0.06,0.04 L4000,0.04 L4000,4000 L0.06,4000 L0.06,0.04 Z" id="path-3"></path>
        <path d="M0.696798246,1523.4591 C41.1440958,675.731624 741.25642,0.851 1599,0.851 C2456.74358,0.851 3156.85685,675.731624 3197.3042,1523.4591 L0.696755363,1523.46 L0.696798246,1523.4591 Z" id="path-5"></path>
        <path d="M2066.81769,0.06 C1781.9856,261.539647 1402.13269,421.15 985,421.15 C613.838655,421.15 272.192994,294.781714 0.74,82.7222725 L0.74,0.06 L2066.81769,0.06 L2066.81769,0.06 Z" id="path-7"></path>
        <polygon id="path-9" points="0.95 656.46 1357.48 656.46 1357.48 0.46 0.95 0.46 0.95 656.46"></polygon>
    </defs>
    <g id="Page-1" stroke="none" stroke-width="1" fill="none" fill-rule="evenodd">
        <g id="bg-login">
            <g id="Rectangle">
                <use fill="url(#linearGradient-1)" fill-rule="evenodd" xlink:href="#path-2"></use>
                <rect stroke="#979797" stroke-width="1" x="-44.5" y="-112.5" width="4789" height="3808"></rect>
            </g>
            <g transform="translate(294.000000, -223.000000)">
                <g id="Group-90">
                    <mask id="mask-4" fill="white">
                        <use xlink:href="#path-3"></use>
                    </mask>
                    <g id="Clip-2"></g>
                    <polygon id="Fill-1" fill="#F9CF09" mask="url(#mask-4)" points="0.06 4000 4000 4000 4000 0.04 0.06 0.04"></polygon>
                    <path d="M3999.45,1680.6 L3999.45,1863.11 C3958.68,1908.6 3891.26,1922.09 3835.41,1893.31 C3886.77,1887 3934.67,1857.5 3962.54,1809.22 C3990.41,1760.95 3992.01,1704.72 3971.79,1657.08 C3982.24,1663.8 3991.49,1671.74 3999.45,1680.6" id="Fill-3" fill="#E0BB08" mask="url(#mask-4)"></path>
                    <path d="M0.552,1900.05 L0.552,1663.09 C14.171,1667.3 27.208,1673.92 38.999,1682.94 L91.48,1646.14 L99.184,1653.85 L62.394,1706.33 C76.945,1725.36 85.242,1747.63 87.292,1770.37 L130.143,1777.9 L130.143,1787.62 L87.052,1795.2 C84.6,1817.54 76.087,1839.34 61.516,1857.94 L99.184,1911.67 L91.48,1919.38 L37.362,1881.44 C26.006,1889.82 13.545,1896.03 0.552,1900.05" id="Fill-4" fill="#E0BB08" mask="url(#mask-4)"></path>
                    <polyline id="Fill-5" fill="#E0BB08" mask="url(#mask-4)" points="3627.4 1636.13 3658.71 1751.44 3774.03 1782.76 3658.71 1814.07 3627.39 1929.39 3596.08 1814.07 3480.77 1782.76 3596.08 1751.44 3627.4 1636.13"></polyline>
                    <path d="M3291.53,1706.33 C3306.08,1725.36 3314.38,1747.63 3316.43,1770.37 L3359.28,1777.9 L3359.28,1787.62 L3316.19,1795.2 C3313.74,1817.54 3305.23,1839.34 3290.66,1857.94 L3328.33,1911.67 L3320.62,1919.38 L3266.5,1881.44 C3247.96,1895.14 3226.46,1903.02 3204.53,1905.07 L3196.57,1950.34 L3186.85,1950.34 L3178.85,1904.81 C3157.3,1902.37 3136.27,1894.29 3118.14,1880.57 L3062.8,1919.38 L3055.09,1911.67 L3093.9,1856.33 C3080.17,1838.2 3072.1,1817.17 3069.66,1795.62 L3024.14,1787.62 L3024.14,1777.9 L3069.4,1769.94 C3071.45,1748.01 3079.33,1726.51 3093.03,1707.97 L3055.09,1653.85 L3062.8,1646.14 L3116.52,1683.81 C3135.13,1669.24 3156.93,1660.73 3179.27,1658.28 L3186.85,1615.19 L3196.57,1615.19 L3204.1,1658.03 C3226.83,1660.08 3249.11,1668.38 3268.14,1682.94 L3320.62,1646.14 L3328.33,1653.85 L3291.53,1706.33" id="Fill-6" fill="#E0BB08" mask="url(#mask-4)"></path>
                    <path d="M2828.48,1752.67 C2824.04,1752.67 2819.69,1753.09 2815.47,1753.88 C2797.52,1721.77 2763.19,1700.05 2723.79,1700.05 C2671.62,1700.05 2628.35,1738.11 2620.21,1787.99 C2618.75,1787.86 2617.28,1787.8 2615.8,1787.8 C2586.81,1787.8 2563.31,1811.29 2563.31,1840.28 C2563.31,1849.41 2565.64,1857.99 2569.74,1865.47 L2883.82,1865.47 C2893,1853.64 2898.46,1838.78 2898.46,1822.65 C2898.46,1784 2867.13,1752.67 2828.48,1752.67" id="Fill-7" fill="#E0BB08" mask="url(#mask-4)"></path>
                    <path d="M2401.52,1840.14 C2438.11,1776.76 2418.12,1696.25 2357.22,1657.08 C2377.44,1704.72 2375.84,1760.95 2347.97,1809.22 C2320.09,1857.5 2272.21,1887 2220.84,1893.31 C2285.2,1926.47 2364.93,1903.52 2401.52,1840.14" id="Fill-8" fill="#E0BB08" mask="url(#mask-4)"></path>
                    <polyline id="Fill-9" fill="#E0BB08" mask="url(#mask-4)" points="2012.83 1636.13 2044.14 1751.44 2159.45 1782.76 2044.14 1814.07 2012.82 1929.39 1981.51 1814.07 1866.2 1782.76 1981.51 1751.44 2012.83 1636.13"></polyline>
                    <path d="M1676.96,1706.33 C1691.51,1725.36 1699.81,1747.63 1701.86,1770.37 L1744.71,1777.9 L1744.71,1787.62 L1701.62,1795.2 C1699.17,1817.54 1690.66,1839.34 1676.09,1857.94 L1713.75,1911.67 L1706.05,1919.38 L1651.93,1881.44 C1633.38,1895.14 1611.89,1903.02 1589.96,1905.07 L1582,1950.34 L1572.28,1950.34 L1564.27,1904.81 C1542.73,1902.37 1521.7,1894.29 1503.57,1880.57 L1448.23,1919.38 L1444.51,1915.66 L1444.37,1915.52 L1440.52,1911.67 L1479.33,1856.33 C1465.6,1838.2 1457.53,1817.17 1455.09,1795.62 L1409.56,1787.62 L1409.56,1777.9 L1454.83,1769.94 C1456.88,1748.01 1464.76,1726.51 1478.46,1707.97 L1440.52,1653.85 L1448.23,1646.14 L1501.95,1683.81 C1520.56,1669.24 1542.36,1660.73 1564.7,1658.28 L1572.28,1615.19 L1582,1615.19 L1589.53,1658.03 C1612.27,1660.08 1634.54,1668.38 1653.57,1682.94 L1706.05,1646.14 L1713.75,1653.85 L1676.96,1706.33" id="Fill-10" fill="#E0BB08" mask="url(#mask-4)"></path>
                    <path d="M1213.91,1752.67 C1209.47,1752.67 1205.12,1753.09 1200.9,1753.88 C1182.95,1721.77 1148.63,1700.05 1109.22,1700.05 C1057.05,1700.05 1013.78,1738.11 1005.64,1787.99 C1004.18,1787.86 1002.71,1787.8 1001.22,1787.8 C972.241,1787.8 948.743,1811.29 948.743,1840.28 C948.743,1849.41 951.073,1857.99 955.175,1865.47 L1269.25,1865.47 C1278.43,1853.64 1283.89,1838.78 1283.89,1822.65 C1283.89,1784 1252.56,1752.67 1213.91,1752.67" id="Fill-11" fill="#E0BB08" mask="url(#mask-4)"></path>
                    <path d="M786.946,1840.14 C823.538,1776.76 803.547,1696.25 742.654,1657.08 C762.874,1704.72 761.267,1760.95 733.397,1809.22 C705.523,1857.5 657.635,1887 606.263,1893.31 C670.635,1926.47 750.358,1903.52 786.946,1840.14" id="Fill-12" fill="#E0BB08" mask="url(#mask-4)"></path>
                    <polyline id="Fill-13" fill="#E0BB08" mask="url(#mask-4)" points="398.254 1636.13 429.569 1751.44 544.883 1782.76 429.569 1814.07 398.254 1929.39 366.944 1814.07 251.629 1782.76 366.944 1751.44 398.254 1636.13"></polyline>
                    <polyline id="Fill-14" fill="#E0BB08" mask="url(#mask-4)" points="89.453 93.793 92.012 93.793 122.043 204.396 237.362 235.711 122.047 267.024 90.733 382.34 59.418 267.024 0.552 251.041 0.552 220.384 59.422 204.396 89.453 93.793"></polyline>
                    <path d="M1260.24,93.793 L1278.99,93.793 L1282.01,110.99 C1304.74,113.039 1327.02,121.337 1346.05,135.888 L1398.53,99.094 L1406.23,106.802 L1369.44,159.279 C1383.99,178.309 1392.29,200.586 1394.34,223.32 L1437.19,230.85 L1437.19,240.575 L1394.1,248.148 C1391.65,270.493 1383.14,292.294 1368.56,310.894 L1406.23,364.624 L1398.53,372.33 L1344.41,334.388 C1325.86,348.089 1304.37,355.969 1282.43,358.019 L1274.48,403.287 L1264.75,403.287 L1256.75,357.763 C1235.21,355.319 1214.17,347.242 1196.05,333.525 L1140.71,372.33 L1136.99,368.61 L1136.85,368.477 L1133,364.624 L1171.8,309.277 C1158.08,291.152 1150.01,270.122 1147.56,248.572 L1102.04,240.575 L1102.04,230.85 L1147.31,222.895 C1149.36,200.961 1157.24,179.462 1170.94,160.92 L1133,106.802 L1140.71,99.094 L1194.43,136.762 C1213.04,122.191 1234.84,113.681 1257.18,111.229 L1260.24,93.793" id="Fill-15" fill="#E0BB08" mask="url(#mask-4)"></path>
                    <polyline id="Fill-16" fill="#E0BB08" mask="url(#mask-4)" points="1704.02 93.793 1706.58 93.793 1736.61 204.396 1851.93 235.711 1736.62 267.024 1705.3 382.34 1673.99 267.024 1558.67 235.711 1673.99 204.396 1704.02 93.793"></polyline>
                    <path d="M2874.1,93.793 L2893.27,93.793 L2896.08,109.789 C2918.81,111.839 2941.09,120.136 2960.12,134.687 L3012.6,97.899 L3020.3,105.601 L2983.5,158.082 C2998.06,177.113 3006.36,199.386 3008.41,222.12 L3051.26,229.653 L3051.26,239.379 L3008.17,246.948 C3005.72,269.292 2997.21,291.093 2982.63,309.699 L3020.3,363.423 L3012.6,371.13 L2958.48,333.188 C2939.93,346.888 2918.44,354.768 2896.5,356.819 L2888.55,402.086 L2878.82,402.086 L2870.82,356.563 C2849.27,354.118 2828.24,346.046 2810.12,332.326 L2754.77,371.13 L2751.05,367.41 L2750.92,367.277 L2747.07,363.423 L2785.87,308.077 C2772.15,289.956 2764.07,268.922 2761.63,247.377 L2716.11,239.379 L2716.11,229.653 L2761.38,221.698 C2763.43,199.76 2771.31,178.261 2785.01,159.719 L2747.07,105.601 L2754.77,97.899 L2808.5,135.561 C2827.1,120.994 2848.9,112.481 2871.25,110.033 L2874.1,93.793" id="Fill-17" fill="#E0BB08" mask="url(#mask-4)"></path>
                    <polyline id="Fill-18" fill="#E0BB08" mask="url(#mask-4)" points="3317.77 93.793 3320.98 93.793 3350.68 203.196 3466 234.514 3350.68 265.825 3319.37 381.139 3288.06 265.825 3172.74 234.51 3288.06 203.196 3317.77 93.793"></polyline>
                    <path d="M3999.45,156.422 L3999.45,317.227 L3876.29,317.227 C3872.19,309.746 3869.86,301.165 3869.86,292.034 C3869.86,263.049 3893.35,239.549 3922.34,239.549 C3923.83,239.549 3925.3,239.615 3926.75,239.737 C3933.21,200.141 3961.82,167.989 3999.45,156.422" id="Fill-19" fill="#E0BB08" mask="url(#mask-4)"></path>
                    <path d="M2093.99,293.096 C2130.59,229.717 2110.6,149.203 2049.7,110.033 C2069.92,157.677 2068.32,213.902 2040.44,262.176 C2012.57,310.45 1964.68,339.953 1913.31,346.266 C1977.68,379.418 2057.41,356.472 2093.99,293.096" id="Fill-20" fill="#E0BB08" mask="url(#mask-4)"></path>
                    <path d="M906.39,205.625 C901.945,205.625 897.596,206.041 893.381,206.837 C875.429,174.719 841.104,153.002 801.698,153.002 C749.528,153.002 706.256,191.065 698.117,240.937 C696.66,240.815 695.188,240.748 693.704,240.748 C664.716,240.748 641.219,264.25 641.219,293.234 C641.219,302.362 643.553,310.946 647.654,318.424 L961.733,318.424 C970.902,306.588 976.366,291.734 976.366,275.601 C976.366,236.955 945.036,205.625 906.39,205.625" id="Fill-21" fill="#E0BB08" mask="url(#mask-4)"></path>
                    <path d="M479.424,293.096 C516.017,229.717 496.027,149.203 435.134,110.033 C455.349,157.677 453.747,213.902 425.872,262.176 C398.002,310.45 350.114,339.953 298.742,346.266 C363.115,379.418 442.836,356.472 479.424,293.096" id="Fill-22" fill="#E0BB08" mask="url(#mask-4)"></path>
                    <path d="M3708.06,291.895 C3744.66,228.52 3724.67,148.003 3663.77,108.832 C3683.99,156.477 3682.38,212.7 3654.51,260.975 C3626.64,309.253 3578.75,338.757 3527.38,345.067 C3591.75,378.219 3671.47,355.272 3708.06,291.895" id="Fill-23" fill="#E0BB08" mask="url(#mask-4)"></path>
                    <path d="M2520.45,204.424 C2516.01,204.424 2511.66,204.842 2507.45,205.632 C2489.5,173.52 2455.17,151.801 2415.77,151.801 C2363.6,151.801 2320.32,189.865 2312.18,239.737 C2310.73,239.615 2309.26,239.549 2307.77,239.549 C2278.79,239.549 2255.29,263.049 2255.29,292.034 C2255.29,301.165 2257.62,309.746 2261.72,317.227 L2575.8,317.227 C2584.97,305.389 2590.44,290.535 2590.44,274.4 C2590.44,235.754 2559.11,204.424 2520.45,204.424" id="Fill-24" fill="#E0BB08" mask="url(#mask-4)"></path>
                    <polyline id="Fill-25" fill="#E0BB08" mask="url(#mask-4)" points="2448.01 1135.79 2479.31 1251.1 2594.63 1282.42 2479.32 1313.73 2448 1429.05 2416.69 1313.73 2301.38 1282.42 2416.7 1251.1 2448.01 1135.79"></polyline>
                    <polyline id="Fill-26" fill="#E0BB08" mask="url(#mask-4)" points="3999.45 1259.74 3999.45 1305.09 3915.95 1282.42 3999.45 1259.74"></polyline>
                    <path d="M0.552,1366.33 L0.552,1227.86 C9.093,1235.56 16.368,1244.63 22.016,1254.74 C26.232,1253.95 30.58,1253.53 35.024,1253.53 C73.671,1253.53 105,1284.86 105,1323.51 C105,1339.64 99.538,1354.49 90.367,1366.33 L0.552,1366.33" id="Fill-27" fill="#E0BB08" mask="url(#mask-4)"></path>
                    <path d="M498.078,1207.18 C512.628,1226.22 520.925,1248.49 522.975,1271.23 L565.821,1278.76 L565.821,1288.48 L522.736,1296.05 C520.284,1318.39 511.77,1340.2 497.199,1358.8 L534.866,1412.53 L527.164,1420.24 L473.044,1382.29 C454.498,1395.99 433.004,1403.87 411.065,1405.93 L403.115,1451.19 L393.386,1451.19 L385.388,1405.67 C363.842,1403.22 342.809,1395.15 324.688,1381.43 L269.341,1420.24 L265.621,1416.52 L265.488,1416.38 L261.635,1412.53 L300.439,1357.18 C286.718,1339.06 278.641,1318.03 276.201,1296.48 L230.678,1288.48 L230.678,1278.76 L275.942,1270.8 C277.995,1248.86 285.875,1227.37 299.577,1208.83 L261.635,1154.71 L269.341,1147 L323.066,1184.67 C341.671,1170.1 363.472,1161.59 385.817,1159.14 L393.386,1116.04 L403.115,1116.04 L410.645,1158.89 C433.379,1160.94 455.652,1169.24 474.681,1183.79 L527.164,1147 L534.866,1154.71 L498.078,1207.18" id="Fill-28" fill="#E0BB08" mask="url(#mask-4)"></path>
                    <polyline id="Fill-29" fill="#E0BB08" mask="url(#mask-4)" points="833.938 1136.99 865.251 1252.3 980.565 1283.62 865.251 1314.93 833.938 1430.24 802.627 1314.93 687.309 1283.62 802.627 1252.3 833.938 1136.99"></polyline>
                    <path d="M2112.65,1207.18 C2127.2,1226.22 2135.49,1248.49 2137.55,1271.23 L2180.4,1278.76 L2180.4,1288.48 L2137.31,1296.05 C2134.85,1318.39 2126.34,1340.2 2111.77,1358.8 L2149.44,1412.53 L2141.73,1420.24 L2087.61,1382.29 C2069.07,1395.99 2047.57,1403.87 2025.64,1405.93 L2017.68,1451.19 L2007.95,1451.19 L1999.96,1405.67 C1978.41,1403.22 1957.38,1395.15 1939.26,1381.43 L1883.91,1420.24 L1880.19,1416.52 L1880.06,1416.38 L1876.2,1412.53 L1915.01,1357.18 C1901.29,1339.06 1893.21,1318.03 1890.77,1296.48 L1845.25,1288.48 L1845.25,1278.76 L1890.51,1270.8 C1892.57,1248.86 1900.45,1227.37 1914.15,1208.83 L1876.2,1154.71 L1883.91,1147 L1937.64,1184.67 C1956.24,1170.1 1978.04,1161.59 2000.39,1159.14 L2007.95,1116.04 L2017.68,1116.04 L2025.21,1158.89 C2047.95,1160.94 2070.22,1169.24 2089.25,1183.79 L2141.73,1147 L2149.44,1154.71 L2112.65,1207.18" id="Fill-30" fill="#E0BB08" mask="url(#mask-4)"></path>
                    <path d="M1649.59,1253.53 C1645.15,1253.53 1640.8,1253.95 1636.59,1254.74 C1618.64,1222.63 1584.31,1200.91 1544.9,1200.91 C1492.73,1200.91 1449.46,1238.97 1441.32,1288.84 C1439.86,1288.72 1438.4,1288.65 1436.91,1288.65 C1407.92,1288.65 1384.43,1312.15 1384.43,1341.14 C1384.43,1350.27 1386.76,1358.85 1390.86,1366.33 L1704.94,1366.33 C1714.11,1354.49 1719.57,1339.64 1719.57,1323.51 C1719.57,1284.86 1688.24,1253.53 1649.59,1253.53" id="Fill-31" fill="#E0BB08" mask="url(#mask-4)"></path>
                    <path d="M1222.63,1341 C1259.22,1277.62 1239.23,1197.11 1178.34,1157.94 C1198.56,1205.58 1196.95,1261.81 1169.08,1310.08 C1141.21,1358.36 1093.32,1387.86 1041.95,1394.17 C1106.32,1427.32 1186.04,1404.38 1222.63,1341" id="Fill-32" fill="#E0BB08" mask="url(#mask-4)"></path>
                    <path d="M3726.71,1205.99 C3741.27,1225.02 3749.56,1247.3 3751.61,1270.03 L3794.47,1277.56 L3794.47,1287.28 L3751.37,1294.85 C3748.92,1317.19 3740.41,1339 3725.84,1357.6 L3763.51,1411.33 L3755.8,1419.04 L3701.68,1381.09 C3683.14,1394.8 3661.64,1402.67 3639.71,1404.72 L3631.75,1449.99 L3622.02,1449.99 L3614.03,1404.47 C3592.48,1402.03 3571.45,1393.95 3553.32,1380.23 L3497.98,1419.04 L3494.26,1415.32 L3494.13,1415.18 L3490.27,1411.33 L3529.08,1355.98 C3515.36,1337.86 3507.28,1316.83 3504.84,1295.28 L3459.31,1287.28 L3459.31,1277.56 L3504.58,1269.6 C3506.64,1247.67 3514.51,1226.17 3528.21,1207.63 L3490.27,1153.51 L3497.98,1145.8 L3551.71,1183.47 C3570.31,1168.9 3592.11,1160.39 3614.45,1157.93 L3622.02,1114.84 L3631.75,1114.84 L3639.28,1157.7 C3662.02,1159.74 3684.29,1168.04 3703.32,1182.6 L3755.8,1145.8 L3763.51,1153.51 L3726.71,1205.99" id="Fill-33" fill="#E0BB08" mask="url(#mask-4)"></path>
                    <path d="M3263.66,1252.33 C3259.22,1252.33 3254.87,1252.75 3250.65,1253.54 C3232.7,1221.42 3198.38,1199.71 3158.97,1199.71 C3106.8,1199.71 3063.53,1237.77 3055.39,1287.64 C3053.93,1287.52 3052.46,1287.46 3050.97,1287.46 C3021.99,1287.46 2998.49,1310.95 2998.49,1339.94 C2998.49,1349.07 3000.83,1357.66 3004.92,1365.13 L3319.01,1365.13 C3328.18,1353.29 3333.64,1338.44 3333.64,1322.31 C3333.64,1283.66 3302.31,1252.33 3263.66,1252.33" id="Fill-34" fill="#E0BB08" mask="url(#mask-4)"></path>
                    <path d="M2836.7,1339.8 C2873.29,1276.42 2853.3,1195.91 2792.4,1156.74 C2812.62,1204.38 2811.02,1260.61 2783.15,1308.88 C2755.28,1357.16 2707.38,1386.66 2656.01,1392.97 C2720.38,1426.12 2800.11,1403.18 2836.7,1339.8" id="Fill-35" fill="#E0BB08" mask="url(#mask-4)"></path>
                    <path d="M3999.45,642.908 L3999.45,855.105 C3995.88,852.94 3992.39,850.571 3989.01,848.008 L3933.66,886.813 L3929.94,883.093 L3929.81,882.96 L3925.96,879.107 L3964.76,823.759 C3951.04,805.638 3942.96,784.605 3940.52,763.055 L3895,755.062 L3895,745.332 L3940.26,737.378 C3942.31,715.442 3950.19,693.948 3963.89,675.403 L3925.96,621.283 L3933.66,613.577 L3987.38,651.247 C3991.27,648.201 3995.3,645.422 3999.45,642.908" id="Fill-36" fill="#E0BB08" mask="url(#mask-4)"></path>
                    <path d="M0.552,854.597 L0.552,756.692 C17.694,714.596 16.82,668.581 0.552,628.38 L0.552,626.443 C60.576,665.874 80.11,745.785 43.742,808.779 C32.726,827.861 17.792,843.273 0.552,854.597" id="Fill-37" fill="#E0BB08" mask="url(#mask-4)"></path>
                    <path d="M2085.28,721.307 C2080.83,721.307 2076.48,721.725 2072.27,722.519 C2054.32,690.402 2019.99,668.684 1980.58,668.684 C1928.42,668.684 1885.14,706.749 1877,756.621 C1875.55,756.499 1874.08,756.431 1872.59,756.431 C1843.61,756.431 1820.11,779.928 1820.11,808.916 C1820.11,818.044 1822.44,826.628 1826.54,834.106 L2140.62,834.106 C2149.79,822.271 2155.25,807.417 2155.25,791.284 C2155.25,752.637 2123.92,721.307 2085.28,721.307" id="Fill-38" fill="#E0BB08" mask="url(#mask-4)"></path>
                    <path d="M1658.31,808.779 C1694.9,745.399 1674.91,664.885 1614.02,625.715 C1634.24,673.356 1632.63,729.584 1604.76,777.858 C1576.89,826.132 1529,855.637 1477.63,861.949 C1542,895.102 1621.72,872.156 1658.31,808.779" id="Fill-39" fill="#E0BB08" mask="url(#mask-4)"></path>
                    <path d="M933.76,674.961 C948.31,693.992 956.608,716.27 958.659,739.004 L1001.51,746.532 L1001.51,756.258 L958.418,763.831 C955.966,786.171 947.453,807.976 932.882,826.578 L970.548,880.306 L962.846,888.012 L908.727,850.071 C890.182,863.772 868.688,871.652 846.748,873.702 L838.797,918.969 L829.068,918.969 L821.07,873.446 C799.525,871.002 778.492,862.925 760.37,849.209 L705.023,888.012 L701.305,884.294 L701.17,884.159 L697.317,880.306 L736.121,824.959 C722.4,806.835 714.325,785.805 711.88,764.256 L666.362,756.258 L666.362,746.532 L711.624,738.577 C713.679,716.643 721.555,695.145 735.259,676.603 L697.317,622.484 L705.023,614.778 L758.749,652.444 C777.355,637.873 799.155,629.364 821.499,626.912 L829.068,583.821 L838.797,583.821 L846.327,626.672 C869.061,628.719 891.334,637.015 910.365,651.571 L962.846,614.778 L970.548,622.484 L933.76,674.961" id="Fill-40" fill="#E0BB08" mask="url(#mask-4)"></path>
                    <polyline id="Fill-41" fill="#E0BB08" mask="url(#mask-4)" points="1269.62 604.768 1300.93 720.08 1416.25 751.393 1300.93 782.704 1269.62 898.022 1238.31 782.704 1122.99 751.393 1238.31 720.08 1269.62 604.768"></polyline>
                    <path d="M470.706,721.307 C466.263,721.307 461.914,721.725 457.698,722.519 C439.746,690.402 405.421,668.684 366.015,668.684 C313.844,668.684 270.572,706.749 262.433,756.621 C260.976,756.499 259.505,756.431 258.022,756.431 C229.032,756.431 205.536,779.928 205.536,808.916 C205.536,818.044 207.87,826.628 211.97,834.106 L526.049,834.106 C535.22,822.271 540.684,807.417 540.684,791.284 C540.684,752.637 509.354,721.307 470.706,721.307" id="Fill-42" fill="#E0BB08" mask="url(#mask-4)"></path>
                    <path d="M2547.82,673.765 C2562.38,692.791 2570.67,715.068 2572.72,737.802 L2615.57,745.332 L2615.57,755.062 L2572.49,762.63 C2570.04,784.97 2561.52,806.775 2546.95,825.377 L2584.62,879.107 L2576.91,886.813 L2522.79,848.87 C2504.25,862.575 2482.75,870.451 2460.82,872.501 L2452.86,917.768 L2443.14,917.768 L2435.14,872.246 C2413.59,869.802 2392.56,861.729 2374.44,848.008 L2319.09,886.813 L2315.37,883.093 L2315.24,882.96 L2311.38,879.107 L2350.19,823.759 C2336.47,805.638 2328.39,784.605 2325.95,763.055 L2280.43,755.062 L2280.43,745.332 L2325.69,737.378 C2327.75,715.442 2335.62,693.948 2349.33,675.403 L2311.38,621.283 L2319.09,613.577 L2372.82,651.247 C2391.42,636.678 2413.22,628.167 2435.57,625.711 L2443.14,582.62 L2452.86,582.62 L2460.39,625.471 C2483.12,627.518 2505.4,635.82 2524.43,650.37 L2576.91,613.577 L2584.62,621.283 L2547.82,673.765" id="Fill-43" fill="#E0BB08" mask="url(#mask-4)"></path>
                    <polyline id="Fill-44" fill="#E0BB08" mask="url(#mask-4)" points="2883.69 603.567 2915 718.879 3030.32 750.193 2915 781.507 2883.69 896.821 2852.38 781.507 2737.06 750.193 2852.38 718.879 2883.69 603.567"></polyline>
                    <path d="M3699.34,720.107 C3694.9,720.107 3690.55,720.528 3686.33,721.32 C3668.39,689.202 3634.06,667.487 3594.65,667.487 C3542.48,667.487 3499.21,705.547 3491.07,755.42 C3489.62,755.298 3488.14,755.235 3486.66,755.235 C3457.67,755.235 3434.17,778.729 3434.17,807.716 C3434.17,816.847 3436.5,825.428 3440.61,832.907 L3754.68,832.907 C3763.86,821.071 3769.32,806.217 3769.32,790.088 C3769.32,751.436 3737.99,720.107 3699.34,720.107" id="Fill-45" fill="#E0BB08" mask="url(#mask-4)"></path>
                    <path d="M3272.38,807.575 C3308.97,744.202 3288.98,663.685 3228.09,624.514 C3248.3,672.159 3246.7,728.384 3218.83,776.663 C3190.96,824.935 3143.07,854.44 3091.7,860.749 C3156.07,893.901 3235.79,870.955 3272.38,807.575" id="Fill-46" fill="#E0BB08" mask="url(#mask-4)"></path>
                    <polygon id="Fill-47" fill="#58AF60" mask="url(#mask-4)" points="0.06 4000 3997 4000 3997 1922.46 0.06 1922.46"></polygon>
                    <path d="M3999.45,2646.25 L3999.45,2859.62 C3983.43,2869.14 3965.73,2874.75 3947.73,2876.43 L3939.78,2921.7 L3930.05,2921.7 L3922.05,2876.18 C3900.5,2873.73 3879.47,2865.66 3861.35,2851.94 L3806,2890.74 L3802.28,2887.02 L3802.15,2886.89 L3798.3,2883.04 L3837.1,2827.69 C3823.38,2809.57 3815.31,2788.54 3812.86,2766.99 L3767.34,2758.99 L3767.34,2749.26 L3812.61,2741.31 C3814.66,2719.37 3822.54,2697.88 3836.24,2679.33 L3798.3,2625.22 L3806,2617.51 L3859.73,2655.18 C3878.33,2640.6 3900.14,2632.1 3922.48,2629.64 L3930.05,2586.55 L3939.78,2586.55 L3947.3,2629.4 C3965.45,2631.04 3983.31,2636.65 3999.45,2646.25" id="Fill-48" fill="#4E9C55" mask="url(#mask-4)"></path>
                    <path d="M805.598,2677.69 C820.15,2696.72 828.446,2719 830.497,2741.73 L873.347,2749.26 L873.347,2758.99 L830.257,2766.56 C827.805,2788.9 819.296,2810.71 804.725,2829.31 L842.391,2883.04 L834.685,2890.74 L780.566,2852.8 C762.02,2866.5 740.526,2874.38 718.59,2876.43 L710.637,2921.7 L700.91,2921.7 L692.913,2876.18 C671.363,2873.73 650.334,2865.66 632.209,2851.94 L576.863,2890.74 L573.143,2887.02 L573.01,2886.89 L569.155,2883.04 L607.96,2827.69 C594.24,2809.57 586.163,2788.54 583.722,2766.99 L538.2,2758.99 L538.2,2749.26 L583.462,2741.31 C585.517,2719.37 593.397,2697.88 607.097,2679.33 L569.155,2625.22 L576.863,2617.51 L630.588,2655.18 C649.193,2640.6 670.994,2632.1 693.337,2629.64 L700.91,2586.55 L710.637,2586.55 L718.165,2629.4 C740.899,2631.45 763.177,2639.75 782.207,2654.3 L834.685,2617.51 L842.391,2625.22 L805.598,2677.69" id="Fill-49" fill="#4E9C55" mask="url(#mask-4)"></path>
                    <polyline id="Fill-50" fill="#4E9C55" mask="url(#mask-4)" points="1141.46 2607.5 1172.77 2722.81 1288.09 2754.12 1172.77 2785.43 1141.46 2900.75 1110.15 2785.43 994.833 2754.12 1110.15 2722.81 1141.46 2607.5"></polyline>
                    <path d="M342.546,2713.66 C338.101,2713.66 333.752,2714.08 329.537,2714.87 C311.589,2682.75 277.259,2661.03 237.858,2661.03 C185.687,2661.03 142.412,2699.1 134.273,2748.97 C132.816,2748.84 131.347,2748.78 129.86,2748.78 C100.876,2748.78 77.378,2772.28 77.378,2801.27 C77.378,2810.39 79.708,2818.98 83.81,2826.46 L397.889,2826.46 C407.062,2814.62 412.522,2799.76 412.522,2783.63 C412.522,2744.98 381.192,2713.66 342.546,2713.66" id="Fill-51" fill="#4E9C55" mask="url(#mask-4)"></path>
                    <path d="M1957.12,2724.04 C1952.67,2724.04 1948.32,2724.46 1944.11,2725.25 C1926.16,2693.13 1891.83,2671.42 1852.43,2671.42 C1800.26,2671.42 1756.98,2709.48 1748.85,2759.35 C1747.39,2759.23 1745.92,2759.16 1744.43,2759.16 C1715.45,2759.16 1691.95,2782.66 1691.95,2811.65 C1691.95,2820.78 1694.28,2829.36 1698.38,2836.84 L2012.46,2836.84 C2021.63,2825 2027.1,2810.14 2027.1,2794.01 C2027.1,2755.36 1995.76,2724.04 1957.12,2724.04" id="Fill-52" fill="#4E9C55" mask="url(#mask-4)"></path>
                    <path d="M1530.15,2811.51 C1566.75,2748.13 1546.76,2667.62 1485.86,2628.44 C1506.08,2676.09 1504.47,2732.31 1476.6,2780.59 C1448.73,2828.86 1400.84,2858.37 1349.47,2864.68 C1413.84,2897.83 1493.56,2874.89 1530.15,2811.51" id="Fill-53" fill="#4E9C55" mask="url(#mask-4)"></path>
                    <path d="M2420.17,2677.69 C2434.72,2696.72 2443.02,2719 2445.07,2741.73 L2487.92,2749.26 L2487.92,2758.99 L2444.83,2766.56 C2442.37,2788.9 2433.86,2810.71 2419.29,2829.31 L2456.96,2883.04 L2449.25,2890.74 L2395.14,2852.8 C2376.59,2866.5 2355.1,2874.38 2333.16,2876.43 L2325.21,2921.7 L2315.48,2921.7 L2307.48,2876.18 C2285.93,2873.73 2264.9,2865.66 2246.78,2851.94 L2191.43,2890.74 L2187.71,2887.02 L2187.58,2886.89 L2183.73,2883.04 L2222.53,2827.69 C2208.81,2809.57 2200.74,2788.54 2198.29,2766.99 L2152.77,2758.99 L2152.77,2749.26 L2198.04,2741.31 C2200.09,2719.37 2207.97,2697.88 2221.67,2679.33 L2183.73,2625.22 L2191.43,2617.51 L2245.16,2655.18 C2263.76,2640.6 2285.57,2632.1 2307.91,2629.64 L2315.48,2586.55 L2325.21,2586.55 L2332.74,2629.4 C2355.47,2631.45 2377.75,2639.75 2396.78,2654.3 L2449.25,2617.51 L2456.96,2625.22 L2420.17,2677.69" id="Fill-54" fill="#4E9C55" mask="url(#mask-4)"></path>
                    <polyline id="Fill-55" fill="#4E9C55" mask="url(#mask-4)" points="2756.03 2607.5 2787.34 2722.81 2902.66 2754.12 2787.35 2785.43 2756.03 2900.75 2724.72 2785.43 2609.4 2754.12 2724.72 2722.81 2756.03 2607.5"></polyline>
                    <polyline id="Fill-56" fill="#4E9C55" mask="url(#mask-4)" points="3500.84 3906.21 3497.63 3906.21 3467.92 3796.8 3352.61 3765.49 3467.92 3734.18 3499.24 3618.87 3530.55 3734.18 3645.86 3765.49 3530.55 3796.8 3500.84 3906.21"></polyline>
                    <path d="M3073.13,3906.21 L3053.97,3906.21 L3050.69,3887.54 C3029.14,3885.1 3008.11,3877.02 2989.99,3863.3 L2934.64,3902.11 L2926.93,3894.4 L2965.73,3839.05 C2952.01,3820.93 2943.94,3799.9 2941.5,3778.35 L2895.97,3770.35 L2895.97,3760.63 L2941.24,3752.67 C2943.29,3730.74 2951.17,3709.24 2964.88,3690.7 L2926.93,3636.58 L2934.64,3628.87 L2988.36,3666.54 C3006.97,3651.97 3028.77,3643.46 3051.11,3641.01 L3058.68,3597.92 L3068.41,3597.92 L3075.94,3640.77 C3098.67,3642.81 3120.95,3651.11 3139.98,3665.67 L3192.46,3628.87 L3200.16,3636.58 L3163.37,3689.06 C3177.93,3708.09 3186.22,3730.37 3188.27,3753.1 L3231.12,3760.63 L3231.12,3770.35 L3188.03,3777.92 C3185.58,3800.27 3177.07,3822.07 3162.5,3840.67 L3200.16,3894.4 L3192.46,3902.11 L3138.34,3864.17 C3119.8,3877.87 3098.3,3885.75 3076.36,3887.8 L3073.13,3906.21" id="Fill-57" fill="#4E9C55" mask="url(#mask-4)"></path>
                    <polyline id="Fill-58" fill="#4E9C55" mask="url(#mask-4)" points="1886.27 3906.21 1883.06 3906.21 1853.35 3796.8 1738.04 3765.49 1853.36 3734.18 1884.67 3618.87 1915.98 3734.18 2031.3 3765.49 1915.98 3796.8 1886.27 3906.21"></polyline>
                    <path d="M1458.56,3906.21 L1439.4,3906.21 L1436.12,3887.54 C1414.57,3885.1 1393.54,3877.02 1375.42,3863.3 L1320.07,3902.11 L1316.35,3898.39 L1316.21,3898.25 L1312.36,3894.4 L1351.16,3839.05 C1337.44,3820.93 1329.37,3799.9 1326.93,3778.35 L1281.4,3770.35 L1281.4,3760.63 L1326.67,3752.67 C1328.73,3730.74 1336.6,3709.24 1350.3,3690.7 L1312.36,3636.58 L1320.07,3628.87 L1373.79,3666.54 C1392.4,3651.97 1414.2,3643.46 1436.54,3641.01 L1444.11,3597.92 L1453.84,3597.92 L1461.37,3640.77 C1484.1,3642.81 1506.38,3651.11 1525.41,3665.67 L1577.89,3628.87 L1585.6,3636.58 L1548.8,3689.06 C1563.36,3708.09 1571.65,3730.37 1573.7,3753.1 L1616.55,3760.63 L1616.55,3770.35 L1573.46,3777.92 C1571.01,3800.27 1562.5,3822.07 1547.93,3840.67 L1585.6,3894.4 L1577.89,3902.11 L1523.77,3864.17 C1505.23,3877.87 1483.73,3885.75 1461.79,3887.8 L1458.56,3906.21" id="Fill-59" fill="#4E9C55" mask="url(#mask-4)"></path>
                    <polyline id="Fill-60" fill="#4E9C55" mask="url(#mask-4)" points="271.698 3906.21 268.487 3906.21 238.783 3796.8 123.467 3765.49 238.783 3734.18 270.096 3618.87 301.407 3734.18 416.725 3765.49 301.407 3796.8 271.698 3906.21"></polyline>
                    <path d="M1085.75,3735.4 C1081.31,3735.4 1076.96,3735.82 1072.74,3736.61 C1054.79,3704.5 1020.46,3682.78 981.062,3682.78 C928.89,3682.78 885.615,3720.84 877.48,3770.71 C876.023,3770.59 874.551,3770.53 873.064,3770.53 C844.079,3770.53 820.583,3794.03 820.583,3823.01 C820.583,3832.14 822.913,3840.73 827.013,3848.2 L1141.1,3848.2 C1150.27,3836.37 1155.73,3821.51 1155.73,3805.38 C1155.73,3766.73 1124.4,3735.4 1085.75,3735.4" id="Fill-61" fill="#4E9C55" mask="url(#mask-4)"></path>
                    <path d="M658.789,3822.87 C695.38,3759.5 675.39,3678.98 614.494,3639.81 C634.712,3687.45 633.107,3743.68 605.237,3791.96 C577.365,3840.23 529.473,3869.73 478.107,3876.05 C542.474,3909.2 622.196,3886.25 658.789,3822.87" id="Fill-62" fill="#4E9C55" mask="url(#mask-4)"></path>
                    <path d="M3887.93,3822.87 C3924.52,3759.5 3904.53,3678.98 3843.64,3639.81 C3863.85,3687.45 3862.25,3743.68 3834.38,3791.96 C3806.5,3840.23 3758.62,3869.73 3707.24,3876.05 C3771.62,3909.2 3851.34,3886.25 3887.93,3822.87" id="Fill-63" fill="#4E9C55" mask="url(#mask-4)"></path>
                    <path d="M2700.32,3735.4 C2695.87,3735.4 2691.53,3735.82 2687.31,3736.61 C2669.36,3704.5 2635.03,3682.78 2595.63,3682.78 C2543.46,3682.78 2500.19,3720.84 2492.05,3770.71 C2490.59,3770.59 2489.12,3770.53 2487.64,3770.53 C2458.65,3770.53 2435.15,3794.03 2435.15,3823.01 C2435.15,3832.14 2437.49,3840.73 2441.58,3848.2 L2755.67,3848.2 C2764.84,3836.37 2770.3,3821.51 2770.3,3805.38 C2770.3,3766.73 2738.97,3735.4 2700.32,3735.4" id="Fill-64" fill="#4E9C55" mask="url(#mask-4)"></path>
                    <path d="M2273.36,3822.87 C2309.95,3759.5 2289.96,3678.98 2229.06,3639.81 C2249.28,3687.45 2247.68,3743.68 2219.81,3791.96 C2191.94,3840.23 2144.05,3869.73 2092.68,3876.05 C2157.04,3909.2 2236.77,3886.25 2273.36,3822.87" id="Fill-65" fill="#4E9C55" mask="url(#mask-4)"></path>
                    <path d="M3571.69,2724.04 C3567.24,2724.04 3562.89,2724.46 3558.68,2725.25 C3540.73,2693.13 3506.4,2671.42 3467,2671.42 C3414.83,2671.42 3371.55,2709.48 3363.41,2759.35 C3361.96,2759.23 3360.49,2759.16 3359,2759.16 C3330.01,2759.16 3306.52,2782.66 3306.52,2811.65 C3306.52,2820.78 3308.85,2829.36 3312.95,2836.84 L3627.03,2836.84 C3636.2,2825 3641.66,2810.14 3641.66,2794.01 C3641.66,2755.36 3610.34,2724.04 3571.69,2724.04" id="Fill-66" fill="#4E9C55" mask="url(#mask-4)"></path>
                    <path d="M3144.72,2811.51 C3181.32,2748.13 3161.32,2667.62 3100.43,2628.44 C3120.65,2676.09 3119.04,2732.31 3091.17,2780.59 C3063.3,2828.86 3015.41,2858.37 2964.04,2864.68 C3028.41,2897.83 3108.13,2874.89 3144.72,2811.51" id="Fill-67" fill="#4E9C55" mask="url(#mask-4)"></path>
                    <polyline id="Fill-68" fill="#4E9C55" mask="url(#mask-4)" points="4000 3235.48 4000 3280.06 3966.79 3289.08 3935.47 3404.4 3904.16 3289.08 3788.84 3257.77 3904.16 3226.46 3935.47 3111.15 3966.78 3226.46 4000 3235.48"></polyline>
                    <path d="M1985.04,3181.34 C1999.59,3200.37 2007.89,3222.65 2009.94,3245.38 L2052.79,3252.91 L2052.79,3262.64 L2009.7,3270.2 C2007.24,3292.55 1998.73,3314.35 1984.16,3332.96 L2021.83,3386.68 L2014.12,3394.39 L1960.01,3356.45 C1941.46,3370.15 1919.97,3378.03 1898.03,3380.08 L1890.08,3425.35 L1880.35,3425.35 L1872.35,3379.82 C1850.8,3377.38 1829.77,3369.3 1811.65,3355.58 L1756.3,3394.39 L1752.58,3390.67 L1752.45,3390.53 L1748.59,3386.68 L1787.4,3331.34 C1773.68,3313.21 1765.61,3292.18 1763.16,3270.63 L1717.64,3262.64 L1717.64,3252.91 L1762.91,3244.96 C1764.96,3223.02 1772.84,3201.52 1786.54,3182.98 L1748.59,3128.86 L1756.3,3121.16 L1810.03,3158.82 C1828.63,3144.25 1850.44,3135.74 1872.78,3133.29 L1880.35,3090.2 L1890.08,3090.2 L1897.6,3133.05 C1920.34,3135.1 1942.62,3143.39 1961.65,3157.95 L2014.12,3121.16 L2021.83,3128.86 L1985.04,3181.34" id="Fill-69" fill="#4E9C55" mask="url(#mask-4)"></path>
                    <path d="M1521.99,3227.68 C1517.54,3227.68 1513.19,3228.1 1508.98,3228.89 C1491.03,3196.78 1456.7,3175.06 1417.3,3175.06 C1365.13,3175.06 1321.85,3213.13 1313.71,3263 C1312.26,3262.87 1310.79,3262.81 1309.3,3262.81 C1280.32,3262.81 1256.82,3286.31 1256.82,3315.29 C1256.82,3324.42 1259.15,3333.01 1263.25,3340.49 L1577.33,3340.49 C1586.5,3328.65 1591.97,3313.79 1591.97,3297.66 C1591.97,3259.01 1560.63,3227.68 1521.99,3227.68" id="Fill-70" fill="#4E9C55" mask="url(#mask-4)"></path>
                    <path d="M1095.02,3315.15 C1131.62,3251.78 1111.63,3171.26 1050.73,3132.09 C1070.95,3179.73 1069.34,3235.96 1041.47,3284.24 C1013.6,3332.51 965.709,3362.01 914.342,3368.33 C978.71,3401.48 1058.43,3378.53 1095.02,3315.15" id="Fill-71" fill="#4E9C55" mask="url(#mask-4)"></path>
                    <path d="M370.468,3181.34 C385.018,3200.37 393.316,3222.65 395.367,3245.38 L438.218,3252.91 L438.218,3262.64 L395.127,3270.2 C392.675,3292.55 384.164,3314.35 369.595,3332.96 L407.261,3386.68 L399.555,3394.39 L345.435,3356.45 C326.89,3370.15 305.396,3378.03 283.46,3380.08 L275.506,3425.35 L265.781,3425.35 L257.783,3379.82 C236.233,3377.38 215.204,3369.3 197.079,3355.58 L141.731,3394.39 L138.013,3390.67 L137.878,3390.53 L134.025,3386.68 L172.83,3331.34 C159.109,3313.21 151.033,3292.18 148.592,3270.63 L103.07,3262.64 L103.07,3252.91 L148.337,3244.96 C150.387,3223.02 158.267,3201.52 171.968,3182.98 L134.025,3128.86 L141.731,3121.16 L195.457,3158.82 C214.063,3144.25 235.864,3135.74 258.208,3133.29 L265.781,3090.2 L275.506,3090.2 L283.035,3133.05 C305.77,3135.1 328.047,3143.39 347.076,3157.95 L399.555,3121.16 L407.261,3128.86 L370.468,3181.34" id="Fill-72" fill="#4E9C55" mask="url(#mask-4)"></path>
                    <polyline id="Fill-73" fill="#4E9C55" mask="url(#mask-4)" points="706.332 3111.15 737.642 3226.46 852.961 3257.77 737.642 3289.08 706.328 3404.4 675.017 3289.08 559.703 3257.77 675.017 3226.46 706.332 3111.15"></polyline>
                    <path d="M3599.61,3181.34 C3614.16,3200.37 3622.46,3222.65 3624.51,3245.38 L3667.36,3252.91 L3667.36,3262.64 L3624.27,3270.2 C3621.81,3292.55 3613.3,3314.35 3598.73,3332.96 L3636.4,3386.68 L3628.69,3394.39 L3574.58,3356.45 C3556.03,3370.15 3534.54,3378.03 3512.6,3380.08 L3504.65,3425.35 L3494.92,3425.35 L3486.92,3379.82 C3465.37,3377.38 3444.34,3369.3 3426.22,3355.58 L3370.87,3394.39 L3367.15,3390.67 L3367.02,3390.53 L3363.17,3386.68 L3401.97,3331.34 C3388.25,3313.21 3380.18,3292.18 3377.73,3270.63 L3332.21,3262.64 L3332.21,3252.91 L3377.48,3244.96 C3379.53,3223.02 3387.41,3201.52 3401.11,3182.98 L3363.17,3128.86 L3370.87,3121.16 L3424.6,3158.82 C3443.2,3144.25 3465.01,3135.74 3487.35,3133.29 L3494.92,3090.2 L3504.65,3090.2 L3512.18,3133.05 C3534.91,3135.1 3557.19,3143.39 3576.22,3157.95 L3628.69,3121.16 L3636.4,3128.86 L3599.61,3181.34" id="Fill-74" fill="#4E9C55" mask="url(#mask-4)"></path>
                    <path d="M3136.56,3227.68 C3132.11,3227.68 3127.76,3228.1 3123.55,3228.89 C3105.6,3196.78 3071.27,3175.06 3031.87,3175.06 C2979.7,3175.06 2936.42,3213.13 2928.29,3263 C2926.83,3262.87 2925.36,3262.81 2923.87,3262.81 C2894.88,3262.81 2871.39,3286.31 2871.39,3315.29 C2871.39,3324.42 2873.72,3333.01 2877.82,3340.49 L3191.9,3340.49 C3201.07,3328.65 3206.53,3313.79 3206.53,3297.66 C3206.53,3259.01 3175.2,3227.68 3136.56,3227.68" id="Fill-75" fill="#4E9C55" mask="url(#mask-4)"></path>
                    <path d="M2709.59,3315.15 C2746.19,3251.78 2726.2,3171.26 2665.3,3132.09 C2685.52,3179.73 2683.91,3235.96 2656.04,3284.24 C2628.17,3332.51 2580.28,3362.01 2528.91,3368.33 C2593.28,3401.48 2673.01,3378.53 2709.59,3315.15" id="Fill-76" fill="#4E9C55" mask="url(#mask-4)"></path>
                    <polyline id="Fill-77" fill="#4E9C55" mask="url(#mask-4)" points="2320.9 3111.15 2352.21 3226.46 2467.53 3257.77 2352.22 3289.08 2320.9 3404.4 2289.59 3289.08 2174.27 3257.77 2289.59 3226.46 2320.9 3111.15"></polyline>
                    <path d="M3999.45,2228.8 L3999.45,2341.16 L3748.63,2341.16 C3744.53,2333.68 3742.2,2325.09 3742.2,2315.96 C3742.2,2286.98 3765.7,2263.48 3794.68,2263.48 C3796.17,2263.48 3797.64,2263.54 3799.1,2263.67 C3807.24,2213.8 3850.51,2175.73 3902.68,2175.73 C3942.08,2175.73 3976.41,2197.45 3994.36,2229.56 C3996.04,2229.25 3997.73,2228.99 3999.45,2228.8" id="Fill-78" fill="#4E9C55" mask="url(#mask-4)"></path>
                    <polyline id="Fill-79" fill="#4E9C55" mask="url(#mask-4)" points="0.552 2287.94 0.552 2228.94 109.2 2258.44 0.552 2287.94"></polyline>
                    <path d="M3580.41,2315.82 C3617,2252.45 3597.01,2171.93 3536.11,2132.76 C3556.33,2180.4 3554.72,2236.63 3526.85,2284.91 C3498.98,2333.18 3451.09,2362.68 3399.72,2369 C3464.09,2402.15 3543.81,2379.2 3580.41,2315.82" id="Fill-80" fill="#4E9C55" mask="url(#mask-4)"></path>
                    <path d="M2855.85,2182.01 C2870.41,2201.04 2878.7,2223.32 2880.75,2246.05 L2923.6,2253.58 L2923.6,2263.31 L2880.51,2270.88 C2878.06,2293.22 2869.55,2315.02 2854.98,2333.63 L2892.64,2387.35 L2884.94,2395.06 L2830.82,2357.12 C2812.28,2370.82 2790.78,2378.7 2768.84,2380.75 L2760.89,2426.02 L2751.16,2426.02 L2743.17,2380.49 C2721.62,2378.05 2700.59,2369.97 2682.46,2356.25 L2627.11,2395.06 L2623.39,2391.34 L2623.26,2391.2 L2619.41,2387.35 L2658.21,2332.01 C2644.49,2313.88 2636.42,2292.85 2633.97,2271.3 L2588.45,2263.31 L2588.45,2253.58 L2633.72,2245.63 C2635.77,2223.69 2643.65,2202.19 2657.35,2183.65 L2619.41,2129.53 L2627.11,2121.83 L2680.84,2159.49 C2699.45,2144.92 2721.25,2136.41 2743.59,2133.96 L2751.16,2090.87 L2760.89,2090.87 L2768.42,2133.72 C2791.15,2135.77 2813.43,2144.06 2832.46,2158.62 L2884.94,2121.83 L2892.64,2129.53 L2855.85,2182.01" id="Fill-81" fill="#4E9C55" mask="url(#mask-4)"></path>
                    <polyline id="Fill-82" fill="#4E9C55" mask="url(#mask-4)" points="3191.71 2111.82 3223.02 2227.13 3338.34 2258.44 3223.02 2289.75 3191.71 2405.07 3160.4 2289.75 3045.09 2258.44 3160.4 2227.13 3191.71 2111.82"></polyline>
                    <path d="M2392.8,2228.36 C2388.35,2228.36 2384,2228.77 2379.79,2229.56 C2361.84,2197.45 2327.51,2175.73 2288.11,2175.73 C2235.94,2175.73 2192.66,2213.8 2184.53,2263.67 C2183.07,2263.54 2181.6,2263.48 2180.11,2263.48 C2151.13,2263.48 2127.63,2286.98 2127.63,2315.96 C2127.63,2325.09 2129.96,2333.68 2134.06,2341.16 L2448.14,2341.16 C2457.32,2329.32 2462.78,2314.47 2462.78,2298.33 C2462.78,2259.68 2431.44,2228.36 2392.8,2228.36" id="Fill-83" fill="#4E9C55" mask="url(#mask-4)"></path>
                    <path d="M1965.84,2315.82 C2002.43,2252.45 1982.44,2171.93 1921.54,2132.76 C1941.76,2180.4 1940.16,2236.63 1912.28,2284.91 C1884.41,2333.18 1836.52,2362.68 1785.15,2369 C1849.52,2402.15 1929.24,2379.2 1965.84,2315.82" id="Fill-84" fill="#4E9C55" mask="url(#mask-4)"></path>
                    <polyline id="Fill-85" fill="#4E9C55" mask="url(#mask-4)" points="1577.14 2111.82 1608.46 2227.13 1723.77 2258.44 1608.46 2289.75 1577.14 2405.07 1545.83 2289.75 1430.52 2258.44 1545.83 2227.13 1577.14 2111.82"></polyline>
                    <path d="M1241.28,2182.01 C1255.83,2201.04 1264.13,2223.32 1266.18,2246.05 L1309.03,2253.58 L1309.03,2263.31 L1265.94,2270.88 C1263.49,2293.22 1254.98,2315.02 1240.41,2333.63 L1278.07,2387.35 L1270.37,2395.06 L1216.25,2357.12 C1197.7,2370.82 1176.21,2378.7 1154.27,2380.75 L1146.32,2426.02 L1136.59,2426.02 L1128.59,2380.49 C1107.05,2378.05 1086.02,2369.97 1067.89,2356.25 L1012.55,2395.06 L1008.83,2391.34 L1008.69,2391.2 L1004.84,2387.35 L1043.64,2332 C1029.92,2313.88 1021.85,2292.85 1019.41,2271.3 L973.882,2263.31 L973.882,2253.58 L1019.15,2245.63 C1021.2,2223.69 1029.08,2202.19 1042.78,2183.65 L1004.84,2129.53 L1012.55,2121.83 L1066.27,2159.49 C1084.88,2144.92 1106.68,2136.41 1129.02,2133.96 L1136.59,2090.87 L1146.32,2090.87 L1153.85,2133.72 C1176.58,2135.77 1198.86,2144.06 1217.89,2158.62 L1270.37,2121.83 L1278.07,2129.53 L1241.28,2182.01" id="Fill-86" fill="#4E9C55" mask="url(#mask-4)"></path>
                    <path d="M778.228,2228.36 C773.785,2228.36 769.435,2228.77 765.219,2229.56 C747.271,2197.45 712.943,2175.73 673.54,2175.73 C621.37,2175.73 578.094,2213.8 569.955,2263.67 C568.498,2263.54 567.031,2263.48 565.542,2263.48 C536.559,2263.48 513.061,2286.98 513.061,2315.96 C513.061,2325.09 515.391,2333.68 519.492,2341.16 L833.571,2341.16 C842.745,2329.32 848.204,2314.47 848.204,2298.33 C848.204,2259.68 816.874,2228.36 778.228,2228.36" id="Fill-87" fill="#4E9C55" mask="url(#mask-4)"></path>
                    <path d="M351.263,2315.82 C387.855,2252.45 367.865,2171.93 306.972,2132.76 C327.191,2180.4 325.585,2236.63 297.715,2284.91 C269.841,2333.18 221.952,2362.68 170.581,2369 C234.953,2402.15 314.675,2379.2 351.263,2315.82" id="Fill-88" fill="#4E9C55" mask="url(#mask-4)"></path>
                    <path d="M3600.15,2000 C3600.15,2883.74 2883.74,3600.15 2000,3600.15 C1116.26,3600.15 399.851,2883.74 399.851,2000 C399.851,1116.26 1116.26,399.851 2000,399.851 C2883.74,399.851 3600.15,1116.26 3600.15,2000" id="Fill-89" fill="#CC4E43" mask="url(#mask-4)"></path>
                </g>
                <g id="Group-93" transform="translate(401.000000, 399.000000)">
                    <mask id="mask-6" fill="white">
                        <use xlink:href="#path-5"></use>
                    </mask>
                    <g id="Clip-92"></g>
                    <polygon id="Fill-91" fill="#6FC6C2" mask="url(#mask-6)" points="-1.22 1523.46 3199.18 1523.46 3199.18 0.76 -1.22 0.76"></polygon>
                </g>
                <g id="Group-99" transform="translate(1047.000000, 705.000000)">
                    <path d="M1384.27,368.56 C1357.6,286.492 1280.51,227.16 1189.55,227.16 C1098.59,227.16 1021.5,286.486 994.83,368.55 C991.53,368.31 988.2,368.19 984.84,368.19 C909.46,368.19 848.36,429.29 848.36,504.66 C848.36,580.03 909.46,641.13 984.84,641.13 L1394.26,641.13 C1469.64,641.13 1530.73,580.03 1530.73,504.66 C1530.73,429.29 1469.64,368.19 1394.26,368.19 C1390.9,368.19 1387.57,368.31 1384.27,368.56" id="Fill-94" fill="#FFFFFF"></path>
                    <path d="M848.36,504.66 C848.36,580.03 909.46,641.13 984.84,641.13 L1394.26,641.13 C1469.64,641.13 1530.74,580.03 1530.74,504.66 L848.36,504.66" id="Fill-96" fill="#F2F2F2"></path>
                    <path d="M387.9,79.873 C387.9,90.07 379.63,98.34 369.43,98.34 C359.23,98.34 350.96,90.07 350.96,79.873 L350.96,18.891 C350.96,8.69 359.23,0.419 369.43,0.419 C379.63,0.419 387.9,8.69 387.9,18.891 L387.9,79.873 Z M587.54,177.862 C580.33,185.072 568.63,185.072 561.42,177.862 C554.21,170.653 554.21,158.958 561.42,151.748 L606.44,106.722 C613.65,99.511 625.34,99.511 632.55,106.722 C639.76,113.932 639.76,125.629 632.55,132.839 L587.54,177.862 Z M177.46,151.748 C184.67,158.958 184.67,170.653 177.46,177.862 C170.25,185.072 158.55,185.072 151.34,177.862 L106.32,132.839 C99.11,125.629 99.11,113.932 106.32,106.722 C113.53,99.511 125.22,99.511 132.43,106.722 L177.46,151.748 Z M18.47,351.38 C8.27,351.38 0,359.65 0,369.84 C0,380.05 8.27,388.32 18.47,388.32 L79.46,388.32 C89.66,388.32 97.93,380.05 97.93,369.84 C97.93,359.65 89.66,351.38 79.46,351.38 L18.47,351.38 Z M659.4,351.38 C649.2,351.38 640.93,359.65 640.93,369.84 C640.93,380.05 649.2,388.32 659.4,388.32 L720.39,388.32 C730.59,388.32 738.86,380.05 738.86,369.84 C738.86,359.65 730.59,351.38 720.39,351.38 L659.4,351.38 Z M387.9,659.81 C387.9,649.62 379.63,641.35 369.43,641.35 C359.23,641.35 350.96,649.62 350.96,659.81 L350.96,720.8 C350.96,731 359.23,739.27 369.43,739.27 C379.63,739.27 387.9,731 387.9,720.8 L387.9,659.81 Z M587.54,561.83 L632.55,606.85 C639.76,614.06 639.76,625.76 632.55,632.97 C625.34,640.18 613.65,640.18 606.44,632.97 L561.42,587.94 C554.21,580.73 554.21,569.04 561.42,561.83 C568.63,554.62 580.33,554.62 587.54,561.83 Z M177.46,587.94 L132.43,632.97 C125.22,640.18 113.53,640.18 106.32,632.97 C99.11,625.76 99.11,614.06 106.32,606.85 L151.34,561.83 C158.55,554.62 170.25,554.62 177.46,561.83 C184.67,569.04 184.67,580.73 177.46,587.94 Z M580.53,369.84 C580.53,253.259 486.02,158.741 369.43,158.741 C252.85,158.741 158.33,253.259 158.33,369.84 C158.33,486.43 252.85,580.94 369.43,580.94 C486.02,580.94 580.53,486.43 580.53,369.84 L580.53,369.84 Z" id="Fill-97" fill="#F0CA1B"></path>
                    <path d="M387.9,659.81 C387.9,649.62 379.63,641.35 369.43,641.35 C359.23,641.35 350.96,649.62 350.96,659.81 L350.96,720.8 C350.96,731 359.23,739.27 369.43,739.27 C379.63,739.27 387.9,731 387.9,720.8 L387.9,659.81 Z M587.54,561.83 L632.55,606.85 C639.76,614.06 639.76,625.76 632.55,632.97 C625.34,640.18 613.65,640.18 606.44,632.97 L561.42,587.94 C554.21,580.73 554.21,569.04 561.42,561.83 C568.63,554.62 580.33,554.62 587.54,561.83 Z M177.46,587.94 L132.43,632.97 C125.22,640.18 113.53,640.18 106.32,632.97 C99.11,625.76 99.11,614.06 106.32,606.85 L151.34,561.83 C158.55,554.62 170.25,554.62 177.46,561.83 C184.67,569.04 184.67,580.73 177.46,587.94 Z M640.93,369.84 L738.86,369.84 C738.86,380.05 730.59,388.32 720.39,388.32 L659.4,388.32 C649.2,388.32 640.93,380.05 640.93,369.84 Z M0,369.84 L97.93,369.84 C97.93,380.05 89.66,388.32 79.46,388.32 L18.47,388.32 C8.27,388.32 0,380.05 0,369.84 Z M158.33,369.84 C158.33,486.43 252.85,580.94 369.43,580.94 C486.02,580.94 580.53,486.43 580.53,369.84 L158.33,369.84 L158.33,369.84 Z" id="Fill-98" fill="#DB9030"></path>
                </g>
                <g id="Group-103" transform="translate(1015.000000, 3179.000000)">
                    <mask id="mask-8" fill="white">
                        <use xlink:href="#path-7"></use>
                    </mask>
                    <g id="Clip-101"></g>
                    <path d="M0.74,113.9 C0.74,141.28 1.88,168.41 4.09,195.23 C6.29,222.04 9.59,248.55 13.93,274.71 C18.26,300.86 23.64,326.66 30,352.08 C36.38,377.49 43.74,402.51 52.06,427.08 C206.23,427.08 360.41,531.23 514.57,531.23 C668.75,531.23 822.92,531.23 977.09,531.23 C1131.27,531.23 1285.44,531.23 1439.61,531.23 C1593.78,531.23 1747.95,427.08 1902.13,427.08 C1910.44,402.51 1917.81,377.5 1924.18,352.08 C1930.56,326.67 1935.93,300.86 1940.27,274.71 C1944.6,248.56 1947.89,222.04 1950.1,195.23 C1952.32,168.41 1953.44,141.28 1953.44,113.9 C1790.72,113.9 1680.06,-94.39 1465.27,113.9 C1348.45,227.17 1158.54,0.06 995.81,0.06 C833.08,0.06 589.1,242.13 488.92,113.9 C326.19,-94.39 163.47,113.9 0.74,113.9" id="Fill-100" fill="#F9DDB5" mask="url(#mask-8)"></path>
                    <path d="M376.74,321.9 C376.74,349.28 377.88,376.41 380.09,403.23 C382.29,430.04 385.59,456.55 389.93,482.71 C394.26,508.86 399.64,534.66 406,560.08 C412.38,585.49 419.74,610.51 428.06,635.08 C582.23,635.08 736.41,739.23 890.57,739.23 C1044.75,739.23 1198.92,739.23 1353.09,739.23 C1507.27,739.23 1661.44,739.23 1815.61,739.23 C1969.78,739.23 2123.95,635.08 2278.13,635.08 C2286.44,610.51 2293.81,585.5 2300.18,560.08 C2306.56,534.67 2311.93,508.86 2316.27,482.71 C2320.6,456.56 2323.89,430.04 2326.1,403.23 C2328.32,376.41 2329.44,349.28 2329.44,321.9 C2166.72,321.9 2056.06,113.61 1841.27,321.9 C1724.45,435.17 1534.54,208.06 1371.81,208.06 C1209.08,208.06 965.1,450.13 864.92,321.9 C702.19,113.61 539.47,321.9 376.74,321.9" id="Fill-102" fill="#087C8B" mask="url(#mask-8)"></path>
                </g>
                <g id="Group-110" transform="translate(2043.000000, 1266.000000)">
                    <mask id="mask-10" fill="white">
                        <use xlink:href="#path-9"></use>
                    </mask>
                    <g id="Clip-105"></g>
                    <path d="M1357.48,716.99 C1357.48,1112.72 1053.81,1433.52 679.21,1433.52 C304.62,1433.52 0.95,1112.72 0.95,716.99 C0.95,321.26 304.62,0.46 679.21,0.46 C1053.81,0.46 1357.48,321.26 1357.48,716.99 Z" id="Stroke-104" stroke="#2E3283" stroke-width="60" stroke-linecap="round" stroke-linejoin="round" mask="url(#mask-10)"></path>
                    <path d="M1299.48,695.29 C1299.48,1049.39 1021.78,1336.44 679.21,1336.44 C336.65,1336.44 58.95,1049.39 58.95,695.29 C58.95,341.2 336.65,54.15 679.21,54.15 C1021.78,54.15 1299.48,341.2 1299.48,695.29 Z" id="Stroke-106" stroke="#569A40" stroke-width="60" stroke-linecap="round" stroke-linejoin="round" mask="url(#mask-10)"></path>
                    <path d="M1237.48,674.17 C1237.48,986.33 987.54,1239.38 679.21,1239.38 C370.89,1239.38 120.95,986.33 120.95,674.17 C120.95,362.02 370.89,108.96 679.21,108.96 C987.54,108.96 1237.48,362.02 1237.48,674.17 Z" id="Stroke-107" stroke="#F0CA1B" stroke-width="60" stroke-linecap="round" stroke-linejoin="round" mask="url(#mask-10)"></path>
                    <path d="M1178.11,666.01 C1178.11,941.55 954.75,1164.91 679.21,1164.91 C403.68,1164.91 180.32,941.55 180.32,666.01 C180.32,390.48 403.68,167.12 679.21,167.12 C954.75,167.12 1178.11,390.48 1178.11,666.01 Z" id="Stroke-108" stroke="#CC5A26" stroke-width="60" stroke-linecap="round" stroke-linejoin="round" mask="url(#mask-10)"></path>
                    <path d="M1117.9,663.39 C1117.9,905.67 921.5,1102.08 679.21,1102.08 C436.93,1102.08 240.53,905.67 240.53,663.39 C240.53,421.11 436.93,224.7 679.21,224.7 C921.5,224.7 1117.9,421.11 1117.9,663.39 Z" id="Stroke-109" stroke="#C00025" stroke-width="60" stroke-linecap="round" stroke-linejoin="round" mask="url(#mask-10)"></path>
                </g>
                <g id="Group-184" transform="translate(641.000000, 1489.000000)">
                    <path d="M2046.48,285.46 L2046.48,427.46" id="Stroke-111" stroke="#404040" stroke-width="22" stroke-linecap="round" stroke-linejoin="round"></path>
                    <path d="M2140.48,279.46 C2140.48,331.37 2098.4,373.46 2046.48,373.46 C1994.57,373.46 1952.48,331.37 1952.48,279.46 C1952.48,227.54 1994.57,185.46 2046.48,185.46 C2098.4,185.46 2140.48,227.54 2140.48,279.46" id="Fill-113" fill="#39B54A"></path>
                    <path d="M2134.56,344.74 L2134.56,427.46" id="Stroke-114" stroke="#404040" stroke-width="17" stroke-linecap="round" stroke-linejoin="round"></path>
                    <path d="M2189.32,341.24 C2189.32,371.48 2164.8,396 2134.56,396 C2104.32,396 2079.8,371.48 2079.8,341.24 C2079.8,311 2104.32,286.48 2134.56,286.48 C2164.8,286.48 2189.32,311 2189.32,341.24" id="Fill-115" fill="#006837"></path>
                    <path d="M404.21,98.82 C385.62,41.62 331.895,0.27 268.503,0.27 C205.111,0.27 151.382,41.62 132.794,98.81 C130.493,98.64 128.174,98.56 125.833,98.56 C73.3,98.56 30.714,141.14 30.714,193.67 C30.714,246.2 73.3,288.79 125.833,288.79 L411.17,288.79 C463.7,288.79 506.29,246.2 506.29,193.67 C506.29,141.14 463.7,98.56 411.17,98.56 C408.83,98.56 406.51,98.65 404.21,98.82" id="Fill-116" fill="#E6E5E5"></path>
                    <path d="M30.714,193.67 C30.714,246.2 73.3,288.79 125.83,288.79 L411.17,288.79 C463.7,288.79 506.29,246.2 506.29,193.67 L30.714,193.67" id="Fill-117" fill="#CBCBCD"></path>
                    <path d="M475.14,265.93 C465.84,237.33 438.98,216.66 407.29,216.66 C375.59,216.66 348.726,237.33 339.432,265.93 C338.282,265.84 337.122,265.8 335.952,265.8 C309.685,265.8 288.392,287.09 288.392,313.35 C288.392,339.62 309.685,360.91 335.952,360.91 L478.62,360.91 C504.89,360.91 526.18,339.62 526.18,313.35 C526.18,287.09 504.89,265.8 478.62,265.8 C477.45,265.8 476.29,265.84 475.14,265.93" id="Fill-118" fill="#E6E5E5"></path>
                    <path d="M288.392,313.35 C288.392,339.62 309.685,360.91 335.949,360.91 L478.62,360.91 C504.89,360.91 526.18,339.62 526.18,313.35 L288.392,313.35" id="Fill-119" fill="#CBCBCD"></path>
                    <path d="M256.596,365 C259.013,360.96 264.253,359.64 268.298,362.06 C272.34,364.47 273.657,369.72 271.237,373.76 L227.755,446.23 C225.337,450.27 220.097,451.59 216.053,449.17 C212.011,446.75 210.693,441.51 213.113,437.47 L256.596,365" id="Fill-120" fill="#CBCBCD"></path>
                    <path d="M455.96,402.33 C458.38,398.29 463.62,396.97 467.67,399.39 C471.71,401.8 473.03,407.04 470.61,411.09 L427.12,483.56 C424.71,487.6 419.47,488.92 415.42,486.5 C411.38,484.08 410.06,478.84 412.48,474.8 L455.96,402.33" id="Fill-121" fill="#CBCBCD"></path>
                    <path d="M362.6,485.26 C365.02,481.22 370.26,479.9 374.3,482.32 C378.34,484.74 379.66,489.98 377.24,494.02 L333.76,566.49 C331.343,570.53 326.102,571.85 322.058,569.43 C318.016,567.01 316.699,561.77 319.118,557.73 L362.6,485.26" id="Fill-122" fill="#CBCBCD"></path>
                    <path d="M45.224,302.86 C47.641,298.81 52.881,297.5 56.926,299.92 C60.968,302.33 62.285,307.57 59.865,311.62 L16.383,384.09 C13.965,388.13 8.725,389.45 4.681,387.03 C0.639,384.61 -0.679,379.37 1.741,375.33 L45.224,302.86" id="Fill-123" fill="#CBCBCD"></path>
                    <path d="M142.844,411.39 C145.26,407.34 150.501,406.03 154.546,408.45 C158.588,410.86 159.905,416.1 157.485,420.15 L114.003,492.62 C111.585,496.66 106.345,497.98 102.301,495.56 C98.259,493.14 96.941,487.9 99.361,483.86 L142.844,411.39" id="Fill-124" fill="#CBCBCD"></path>
                    <polyline id="Fill-125" fill="#E6E5E5" points="214.752 241.23 214.752 275.01 238.639 251.12 246.71 259.19 222.822 283.08 256.602 283.08 256.602 294.49 222.824 294.49 246.71 318.38 238.639 326.45 214.752 302.56 214.752 336.34 203.34 336.34 203.34 302.56 179.453 326.45 171.383 318.38 195.269 294.49 161.489 294.49 161.489 283.08 195.271 283.08 171.383 259.19 179.453 251.12 203.34 275.01 203.34 241.23 214.752 241.23"></polyline>
                    <polyline id="Fill-126" fill="#E6E5E5" points="101.572 348.96 101.572 365.85 113.516 353.9 117.552 357.94 105.608 369.88 122.498 369.88 122.498 375.59 105.61 375.59 117.552 387.53 113.516 391.56 101.572 379.62 101.572 396.51 95.866 396.51 95.866 379.62 83.925 391.56 79.889 387.53 91.831 375.59 74.941 375.59 74.941 369.88 91.833 369.88 79.889 357.94 83.925 353.9 95.866 365.84 95.866 348.96 101.572 348.96"></polyline>
                    <polyline id="Fill-127" fill="#E6E5E5" points="226.171 474.45 226.171 508.23 250.058 484.34 258.13 492.41 234.241 516.3 268.021 516.3 268.021 527.71 234.244 527.71 258.13 551.6 250.058 559.67 226.171 535.78 226.171 569.57 214.759 569.57 214.759 535.79 190.873 559.67 182.802 551.6 206.688 527.71 172.908 527.71 172.908 516.3 206.69 516.3 182.802 492.41 190.873 484.34 214.759 508.23 214.759 474.45 226.171 474.45"></polyline>
                    <polyline id="Fill-128" fill="#E6E5E5" points="338.078 402.02 338.078 418.91 350.022 406.97 354.058 411 342.114 422.95 359 422.95 359 428.65 342.116 428.65 354.058 440.59 350.022 444.63 338.078 432.69 338.078 449.58 332.372 449.58 332.372 432.69 320.431 444.63 316.395 440.59 328.337 428.65 311.447 428.65 311.447 422.95 328.339 422.95 316.395 411 320.431 406.97 332.372 418.91 332.372 402.02 338.078 402.02"></polyline>
                    <polyline id="Fill-129" fill="#E6E5E5" points="574.18 215.38 574.18 232.27 586.12 220.33 590.16 224.36 578.21 236.31 595.1 236.31 595.1 242.01 578.22 242.01 590.16 253.96 586.12 257.99 574.18 246.05 574.18 262.94 568.47 262.94 568.47 246.05 556.53 257.99 552.5 253.96 564.44 242.01 547.55 242.01 547.55 236.31 564.44 236.31 552.5 224.36 556.53 220.33 568.47 232.27 568.47 215.38 574.18 215.38"></polyline>
                    <polyline id="Fill-130" fill="#E6E5E5" points="88.745 15.2 88.745 32.09 100.689 20.14 104.724 24.18 92.78 36.12 109.671 36.12 109.671 41.83 92.783 41.83 104.724 53.77 100.689 57.8 88.745 45.86 88.745 62.75 83.039 62.75 83.039 45.86 71.097 57.8 67.062 53.77 79.004 41.83 62.114 41.83 62.114 36.12 79.006 36.12 67.062 24.18 71.097 20.14 83.039 32.08 83.039 15.2 88.745 15.2"></polyline>
                    <path d="M2431.92,246 C2432.85,244.44 2434.87,243.93 2436.43,244.86 C2437.99,245.8 2438.5,247.82 2437.57,249.38 L2420.81,277.31 C2419.87,278.86 2417.85,279.37 2416.3,278.44 C2414.74,277.51 2414.23,275.49 2415.16,273.93 L2431.92,246" id="Fill-131" fill="#FFFFFF"></path>
                    <path d="M2446.82,268.06 C2447.75,266.5 2449.77,265.99 2451.33,266.92 C2452.88,267.85 2453.39,269.87 2452.46,271.43 L2435.7,299.36 C2434.77,300.92 2432.75,301.43 2431.19,300.5 C2429.63,299.57 2429.12,297.55 2430.06,295.99 L2446.82,268.06" id="Fill-132" fill="#FFFFFF"></path>
                    <path d="M2472.78,270 C2473.71,268.45 2475.73,267.94 2477.29,268.87 C2478.85,269.8 2479.35,271.82 2478.42,273.38 L2461.66,301.31 C2460.73,302.87 2458.71,303.38 2457.15,302.45 C2455.59,301.51 2455.09,299.49 2456.02,297.94 L2472.78,270" id="Fill-133" fill="#FFFFFF"></path>
                    <path d="M2374.43,248.97 C2375.36,247.41 2377.38,246.9 2378.94,247.84 C2380.5,248.77 2381,250.79 2380.07,252.35 L2363.31,280.28 C2362.38,281.84 2360.36,282.34 2358.8,281.41 C2357.24,280.48 2356.74,278.46 2357.67,276.9 L2374.43,248.97" id="Fill-134" fill="#FFFFFF"></path>
                    <path d="M2395.53,263.88 C2396.46,262.32 2398.48,261.81 2400.04,262.74 C2401.6,263.68 2402.1,265.7 2401.17,267.25 L2384.41,295.19 C2383.48,296.74 2381.46,297.25 2379.9,296.32 C2378.34,295.39 2377.84,293.37 2378.77,291.81 L2395.53,263.88" id="Fill-135" fill="#FFFFFF"></path>
                    <path d="M2333.7,271.66 C2334.63,270.1 2336.65,269.6 2338.21,270.53 C2339.76,271.46 2340.27,273.48 2339.34,275.04 L2322.58,302.97 C2321.65,304.53 2319.63,305.04 2318.07,304.1 C2316.51,303.17 2316,301.15 2316.94,299.59 L2333.7,271.66" id="Fill-136" fill="#FFFFFF"></path>
                    <path d="M2291.8,299.59 C2292.73,298.04 2294.75,297.53 2296.31,298.46 C2297.87,299.39 2298.38,301.41 2297.44,302.97 L2280.68,330.9 C2279.75,332.46 2277.73,332.97 2276.17,332.04 C2274.61,331.1 2274.11,329.08 2275.04,327.53 L2291.8,299.59" id="Fill-137" fill="#FFFFFF"></path>
                    <path d="M2299.36,338.58 C2300.3,337.02 2302.32,336.51 2303.87,337.45 C2305.43,338.38 2305.94,340.4 2305.01,341.96 L2288.25,369.89 C2287.32,371.45 2285.3,371.95 2283.74,371.02 C2282.18,370.09 2281.67,368.07 2282.6,366.51 L2299.36,338.58" id="Fill-138" fill="#FFFFFF"></path>
                    <path d="M2291.22,385.25 C2292.15,383.69 2294.17,383.18 2295.73,384.11 C2297.29,385.05 2297.79,387.07 2296.86,388.63 L2280.1,416.56 C2279.17,418.11 2277.15,418.62 2275.59,417.69 C2274.03,416.76 2273.53,414.74 2274.46,413.18 L2291.22,385.25" id="Fill-139" fill="#FFFFFF"></path>
                    <path d="M2490.92,296.33 C2491.85,294.78 2493.87,294.27 2495.43,295.2 C2496.99,296.13 2497.5,298.15 2496.57,299.71 L2479.81,327.64 C2478.88,329.2 2476.86,329.71 2475.3,328.78 C2473.74,327.84 2473.23,325.82 2474.16,324.27 L2490.92,296.33" id="Fill-140" fill="#FFFFFF"></path>
                    <path d="M2447.48,395.64 C2448.41,394.09 2450.43,393.58 2451.99,394.51 C2453.54,395.44 2454.05,397.46 2453.12,399.02 L2436.36,426.95 C2435.43,428.51 2433.41,429.02 2431.85,428.09 C2430.29,427.15 2429.78,425.13 2430.72,423.58 L2447.48,395.64" id="Fill-141" fill="#FFFFFF"></path>
                    <path d="M2500.68,375.95 C2501.61,374.39 2503.63,373.88 2505.19,374.81 C2506.75,375.74 2507.25,377.76 2506.32,379.32 L2489.56,407.25 C2488.63,408.81 2486.61,409.32 2485.05,408.39 C2483.49,407.46 2482.99,405.44 2483.92,403.88 L2500.68,375.95" id="Fill-142" fill="#FFFFFF"></path>
                    <path d="M2501.86,334.16 C2502.79,332.6 2504.81,332.1 2506.37,333.03 C2507.93,333.96 2508.43,335.98 2507.5,337.54 L2490.74,365.47 C2489.81,367.03 2487.79,367.53 2486.23,366.6 C2484.67,365.67 2484.17,363.65 2485.1,362.09 L2501.86,334.16" id="Fill-143" fill="#FFFFFF"></path>
                    <path d="M2338.02,303.02 C2338.95,301.46 2340.97,300.95 2342.53,301.88 C2344.09,302.82 2344.6,304.84 2343.67,306.4 L2326.91,334.33 C2325.97,335.88 2323.95,336.39 2322.4,335.46 C2320.84,334.53 2320.33,332.51 2321.26,330.95 L2338.02,303.02" id="Fill-144" fill="#FFFFFF"></path>
                    <path d="M2402.68,303.36 C2403.62,301.81 2405.64,301.3 2407.19,302.23 C2408.75,303.16 2409.26,305.18 2408.33,306.74 L2391.57,334.67 C2390.64,336.23 2388.62,336.74 2387.06,335.81 C2385.5,334.87 2384.99,332.85 2385.92,331.3 L2402.68,303.36" id="Fill-145" fill="#FFFFFF"></path>
                    <path d="M2455.64,320.55 C2456.57,318.99 2458.59,318.48 2460.15,319.42 C2461.71,320.35 2462.22,322.37 2461.28,323.93 L2444.53,351.86 C2443.59,353.42 2441.57,353.92 2440.02,352.99 C2438.46,352.06 2437.95,350.04 2438.88,348.48 L2455.64,320.55" id="Fill-146" fill="#FFFFFF"></path>
                    <path d="M2469.84,342.08 C2470.77,340.52 2472.79,340.01 2474.35,340.95 C2475.91,341.88 2476.41,343.9 2475.48,345.46 L2458.72,373.39 C2457.79,374.95 2455.77,375.45 2454.21,374.52 C2452.65,373.59 2452.15,371.57 2453.08,370.01 L2469.84,342.08" id="Fill-147" fill="#FFFFFF"></path>
                    <path d="M2368.12,319.39 C2369.06,317.83 2371.08,317.32 2372.63,318.25 C2374.19,319.19 2374.7,321.21 2373.77,322.76 L2357.01,350.69 C2356.08,352.25 2354.06,352.76 2352.5,351.83 C2350.94,350.9 2350.43,348.88 2351.36,347.32 L2368.12,319.39" id="Fill-148" fill="#FFFFFF"></path>
                    <path d="M2327.28,350.23 C2328.21,348.67 2330.23,348.16 2331.79,349.09 C2333.34,350.03 2333.85,352.05 2332.92,353.6 L2316.16,381.53 C2315.23,383.09 2313.21,383.6 2311.65,382.67 C2310.09,381.74 2309.58,379.72 2310.52,378.16 L2327.28,350.23" id="Fill-149" fill="#FFFFFF"></path>
                    <path d="M2422.58,319.39 C2423.51,317.83 2425.53,317.32 2427.09,318.25 C2428.65,319.19 2429.16,321.21 2428.23,322.76 L2411.47,350.7 C2410.53,352.25 2408.51,352.76 2406.96,351.83 C2405.4,350.9 2404.89,348.88 2405.82,347.32 L2422.58,319.39" id="Fill-150" fill="#FFFFFF"></path>
                    <path d="M2417.44,370.13 C2418.37,368.58 2420.39,368.07 2421.95,369 C2423.51,369.93 2424.02,371.95 2423.08,373.51 L2406.32,401.44 C2405.39,403 2403.37,403.51 2401.81,402.58 C2400.26,401.64 2399.75,399.62 2400.68,398.07 L2417.44,370.13" id="Fill-151" fill="#FFFFFF"></path>
                    <path d="M2359.95,373.11 C2360.88,371.55 2362.9,371.04 2364.46,371.97 C2366.01,372.9 2366.52,374.92 2365.59,376.48 L2348.83,404.41 C2347.9,405.97 2345.88,406.48 2344.32,405.55 C2342.76,404.61 2342.25,402.59 2343.19,401.04 L2359.95,373.11" id="Fill-152" fill="#FFFFFF"></path>
                    <path d="M2389.32,363.19 C2390.25,361.63 2392.27,361.12 2393.83,362.05 C2395.39,362.98 2395.9,365 2394.96,366.56 L2378.2,394.49 C2377.27,396.05 2375.25,396.56 2373.69,395.63 C2372.14,394.7 2371.63,392.68 2372.56,391.12 L2389.32,363.19" id="Fill-153" fill="#FFFFFF"></path>
                    <path d="M2319.21,395.8 C2320.14,394.24 2322.16,393.73 2323.72,394.67 C2325.28,395.6 2325.79,397.62 2324.86,399.18 L2308.1,427.11 C2307.17,428.67 2305.15,429.17 2303.59,428.24 C2302.03,427.31 2301.52,425.29 2302.45,423.73 L2319.21,395.8" id="Fill-154" fill="#FFFFFF"></path>
                    <path d="M2492.9,127.33 C2478.74,83.75 2437.8,52.24 2389.49,52.24 C2341.19,52.24 2300.25,83.75 2286.09,127.33 C2284.33,127.2 2282.57,127.14 2280.78,127.14 C2240.75,127.14 2208.31,159.58 2208.31,199.61 C2208.31,239.64 2240.75,272.08 2280.78,272.08 L2498.21,272.08 C2538.23,272.08 2570.68,239.64 2570.68,199.61 C2570.68,159.58 2538.23,127.14 2498.21,127.14 C2496.42,127.14 2494.65,127.2 2492.9,127.33" id="Fill-155" fill="#3B3B3B"></path>
                    <path d="M2208.3,199.61 C2208.3,239.64 2240.75,272.08 2280.78,272.08 L2498.21,272.08 C2538.23,272.08 2570.68,239.64 2570.68,199.61 L2208.3,199.61" id="Fill-156" fill="#000000"></path>
                    <polyline id="Fill-157" fill="#000000" points="2403.22 180.65 2336.33 297.46 2383.48 297.46 2365.34 390.74 2432.23 273.94 2385.08 273.93 2403.22 180.65"></polyline>
                    <polygon id="Fill-158" fill="#E6E5E5" points="1607.93 1446.85 2290.71 1446.85 2290.71 958.29 1607.93 958.29"></polygon>
                    <polyline id="Fill-159" fill="#F9CF09" points="1510.83 958.29 2387.81 958.29 1949.32 566.82 1510.83 958.29"></polyline>
                    <path d="M1949.32,872.37 C1982.23,872.37 2009.07,845.53 2009.07,812.63 C2009.07,779.73 1982.23,752.88 1949.32,752.88 C1916.42,752.88 1889.58,779.73 1889.58,812.63 C1889.58,845.53 1916.42,872.37 1949.32,872.37" id="Fill-160" fill="#E6BF09"></path>
                    <path d="M1175.13,1168.48 L1175.13,1448.53" id="Stroke-161" stroke="#6E6E6E" stroke-width="22" stroke-linecap="round" stroke-linejoin="round"></path>
                    <path d="M1360.51,1156.64 C1360.51,1259.03 1277.51,1342.03 1175.13,1342.03 C1072.74,1342.03 989.74,1259.03 989.74,1156.64 C989.74,1054.26 1072.74,971.26 1175.13,971.26 C1277.51,971.26 1360.51,1054.26 1360.51,1156.64" id="Fill-162" fill="#ADC227"></path>
                    <path d="M1446.6,1446.85 L2481.34,1446.85" id="Stroke-163" stroke="#A33323" stroke-width="40" stroke-linecap="round" stroke-linejoin="round"></path>
                    <path d="M1095.92,1454.01 L1250.45,1454.01" id="Stroke-164" stroke="#A33323" stroke-width="27" stroke-linecap="round" stroke-linejoin="round"></path>
                    <polygon id="Fill-165" fill="#935799" points="1942.3 1321.19 2050.5 1321.19 2050.5 1168.74 1942.3 1168.74"></polygon>
                    <polygon id="Fill-166" fill="#935799" points="1819.86 1320.04 1927.61 1320.04 1927.61 1205.58 1819.86 1205.58"></polygon>
                    <polygon id="Fill-167" fill="#935799" points="1942.3 1192.58 2050.5 1192.58 2050.5 1085.49 1942.3 1085.49"></polygon>
                    <polygon id="Fill-168" fill="#935799" points="1819.86 1192.32 1927.05 1192.32 1927.05 1085.49 1819.86 1085.49"></polygon>
                    <polygon id="Fill-169" fill="#E6E5E5" points="296.765 1157.93 693.06 1157.93 693.06 874.35 296.765 874.35"></polygon>
                    <polyline id="Fill-170" fill="#30622F" points="240.399 874.35 749.43 874.35 494.91 647.14 240.399 874.35"></polyline>
                    <path d="M494.91,824.48 C514.01,824.48 529.59,808.91 529.59,789.81 C529.59,770.71 514.01,755.13 494.91,755.13 C475.82,755.13 460.24,770.71 460.24,789.81 C460.24,808.91 475.82,824.48 494.91,824.48" id="Fill-171" fill="#3D7D3C"></path>
                    <path d="M205.922,1157.93 L794.97,1157.93" id="Stroke-172" stroke="#A33323" stroke-width="24" stroke-linecap="round" stroke-linejoin="round"></path>
                    <polygon id="Fill-173" fill="#6E8BEA" points="494.08 1088.26 567.9 1088.26 567.9 984.26 494.08 984.26"></polygon>
                    <polygon id="Fill-174" fill="#6E8BEA" points="410.56 1087.48 484.06 1087.48 484.06 1009.39 410.56 1009.39"></polygon>
                    <polygon id="Fill-175" fill="#6E8BEA" points="494.08 1000.53 567.9 1000.53 567.9 927.47 494.08 927.47"></polygon>
                    <polygon id="Fill-176" fill="#6E8BEA" points="410.56 1000.35 483.68 1000.35 483.68 927.47 410.56 927.47"></polygon>
                    <polygon id="Fill-177" fill="#E6E5E5" points="918.27 433.46 1091.52 433.46 1091.52 309.49 918.27 309.49"></polygon>
                    <polyline id="Fill-178" fill="#C43400" points="893.63 309.49 1116.16 309.49 1004.9 210.16 893.63 309.49"></polyline>
                    <path d="M1004.9,287.69 C1013.25,287.69 1020.06,280.88 1020.06,272.53 C1020.06,264.18 1013.25,257.37 1004.9,257.37 C996.55,257.37 989.74,264.18 989.74,272.53 C989.74,280.88 996.55,287.69 1004.9,287.69" id="Fill-179" fill="#AB2D00"></path>
                    <polygon id="Fill-180" fill="#087C8B" points="1007.09 404.88 1040.46 404.88 1040.46 357.86 1007.09 357.86"></polygon>
                    <polygon id="Fill-181" fill="#087C8B" points="969.33 404.53 1002.56 404.53 1002.56 369.22 969.33 369.22"></polygon>
                    <polygon id="Fill-182" fill="#087C8B" points="1007.09 365.22 1040.46 365.22 1040.46 332.19 1007.09 332.19"></polygon>
                    <polygon id="Fill-183" fill="#087C8B" points="969.33 365.14 1002.39 365.14 1002.39 332.19 969.33 332.19"></polygon>
                </g>
            </g>
        </g>
    </g>
</svg>